<svg width="88" height="88" viewBox="0 0 88 88" fill="none" xmlns="http://www.w3.org/2000/svg">
<circle cx="44" cy="44" r="44" fill="#FEEDF1"/>
<path d="M69.9882 46.3193H64.7806L64.9111 46.1896C70.4168 40.7178 70.4168 31.8165 64.9111 26.3447C62.2434 23.6948 58.698 22.2353 54.9258 22.2353C51.1537 22.2353 47.6082 23.6961 44.9419 26.346L44.0147 27.2676L43.0614 26.3201C37.5556 20.8483 28.5979 20.8483 23.0922 26.3201C17.5864 31.7919 17.5864 40.6946 23.0922 46.1664L23.2474 46.3207H18.0137C17.559 46.3207 17.1895 46.6879 17.1895 47.1398C17.1895 47.5917 17.559 47.959 18.0137 47.959H24.8944L43.4309 66.3813C43.5916 66.5411 43.8031 66.6216 44.0133 66.6216C44.2235 66.6216 44.435 66.5411 44.5958 66.3813L63.1308 47.959H69.9869C70.4416 47.959 70.8111 47.5917 70.8111 47.1398C70.8111 46.6879 70.4416 46.3207 69.9869 46.3207L69.9882 46.3193ZM24.257 45.0073C19.3942 40.1744 19.3942 32.3107 24.257 27.4778C26.6885 25.0614 29.8823 23.8531 33.0761 23.8531C36.2699 23.8531 39.4637 25.0614 41.8951 27.4778L43.4309 29.0041C43.7523 29.3236 44.2743 29.3236 44.5958 29.0041L46.1068 27.5037C48.4627 25.1624 51.5947 23.8736 54.9258 23.8736C58.257 23.8736 61.389 25.1637 63.7449 27.5037C68.6077 32.3367 68.6077 40.199 63.7449 45.0319L62.4495 46.3193H59.9109L54.5467 32.5483C54.4258 32.2397 54.1099 32.024 53.7774 32.024C53.445 32.024 53.1291 32.2384 53.0095 32.5469L46.0477 50.4177L44.6562 46.8408C44.5326 46.5227 44.2304 46.3179 43.8869 46.3179H25.5771L24.257 45.006V45.0073ZM44.0133 64.642L27.2256 47.9576H43.321L45.2785 52.9816C45.4021 53.2997 45.7043 53.5045 46.0477 53.5045C46.3912 53.5045 46.6906 53.3038 46.817 52.9816L53.7788 35.1122L58.5784 47.4333C58.6993 47.7419 59.0153 47.9576 59.3477 47.9576H60.8024L44.0147 64.642H44.0133Z" fill="#666666"/>
</svg>
