<svg width="88" height="88" viewBox="0 0 88 88" fill="none" xmlns="http://www.w3.org/2000/svg">
<circle cx="44" cy="44" r="44" fill="#FEEDF1"/>
<path d="M44.4188 45.2271C44.327 45.2271 44.2323 45.2035 44.1494 45.1561C43.5692 44.8333 29.9083 37.152 28.2003 28.0376C27.6438 25.0586 28.4312 22.2603 30.5447 19.7167C30.5566 19.7048 30.5684 19.69 30.5803 19.6782C32.1698 18.088 34.2893 17.2115 36.5419 17.2115C40.6535 17.2115 43.3768 20.0898 44.4158 21.4282C45.4578 20.0898 48.1781 17.2115 52.2897 17.2115C54.5424 17.2115 56.6589 18.088 58.2544 19.6841C58.2662 19.696 58.2781 19.7078 58.2899 19.7226C60.4034 22.2662 61.1908 25.0645 60.6343 28.0435C58.9263 37.158 45.2654 44.8392 44.6852 45.162C44.6023 45.2094 44.5076 45.2331 44.4158 45.2331L44.4188 45.2271ZM31.3825 20.451C29.5028 22.7223 28.8012 25.2037 29.2926 27.8332C30.7786 35.7632 42.4799 42.8937 44.4188 44.0279C46.3547 42.8967 58.062 35.7573 59.545 27.8332C60.0364 25.2037 59.3319 22.7223 57.4551 20.451C56.0757 19.08 54.2434 18.3249 52.2957 18.3249C47.6808 18.3249 44.9191 22.6364 44.8924 22.6808C44.7918 22.8437 44.6112 22.9414 44.4218 22.9414C44.2294 22.9414 44.0517 22.8437 43.9511 22.6808C43.9245 22.6394 41.1627 18.3279 36.5479 18.3279C34.6001 18.3279 32.7708 19.083 31.3913 20.454L31.3825 20.451Z" fill="#666666"/>
<path d="M44.4178 72.7836C42.7838 72.7836 42.2717 70.8411 41.7774 68.9607C41.4281 67.64 39.9806 55.8605 39.6491 54.6109C39.2791 53.2073 38.8587 51.6172 38.0832 51.6172C37.3076 51.6172 36.8873 53.2073 36.5173 54.6109C36.1858 55.8694 34.7353 64.9276 34.389 66.2394C33.8946 68.1197 33.3796 70.0623 31.7485 70.0623C31.6775 70.0623 31.6065 70.0475 31.5443 70.0238C30.0702 69.8668 29.5817 68.0102 29.1081 66.2098C28.7677 64.9158 27.3172 58.5789 26.9798 57.3026C26.6098 55.899 26.1894 54.3089 25.4139 54.3089C24.6383 54.3089 24.218 55.899 23.848 57.3026C23.6289 58.1376 23.0932 60.4118 23.0369 60.6606C22.809 61.6525 22.1252 62.1678 21.0004 62.1915H18.576C18.2682 62.1915 18.0195 61.9427 18.0195 61.6348C18.0195 61.3268 18.2682 61.0781 18.576 61.0781H20.9885C21.6723 61.0633 21.8558 60.8323 21.9535 60.4118C22.0127 60.1542 22.5455 57.8859 22.7735 57.0213C23.2678 55.1409 23.7799 53.1984 25.4139 53.1984C27.0479 53.1984 27.56 55.1409 28.0543 57.0213C28.3947 58.3153 29.8452 64.6522 30.1826 65.9285C30.5527 67.3321 30.97 68.9222 31.7485 68.9222C31.7929 68.9222 31.8344 68.9281 31.8729 68.937C32.5685 68.7771 32.9622 67.2847 33.3115 65.9581C33.643 64.6996 35.0935 55.6414 35.4398 54.3296C35.9341 52.4492 36.4462 50.5067 38.0802 50.5067C39.7142 50.5067 40.2263 52.4492 40.7206 54.3296C41.0699 55.6503 42.5174 67.4298 42.849 68.6794C43.219 70.083 43.6393 71.6731 44.4149 71.6731C45.1904 71.6731 45.6108 70.083 45.9808 68.6794C46.3093 67.4298 47.7598 55.6532 48.1091 54.3296C48.6034 52.4492 49.1185 50.5067 50.7495 50.5067C52.3805 50.5067 52.8956 52.4492 53.3899 54.3296C53.7363 55.6414 55.1867 64.6996 55.5183 65.9581C55.8675 67.2847 56.2612 68.7771 56.9569 68.937C56.9983 68.9281 57.0398 68.9222 57.0812 68.9222C57.8567 68.9222 58.2771 67.3321 58.6471 65.9285C58.9845 64.6522 60.432 58.3153 60.7754 57.0213C61.2698 55.1409 61.7848 53.1984 63.4158 53.1984C65.0469 53.1984 65.5619 55.1409 66.0563 57.0213C66.2842 57.8859 66.817 60.1542 66.8762 60.4118C66.9709 60.8323 67.1574 61.0633 67.8531 61.0781H70.2537C70.5616 61.0781 70.8102 61.3268 70.8102 61.6348C70.8102 61.9427 70.5616 62.1915 70.2537 62.1915H67.8412C66.7045 62.1648 66.0178 61.6496 65.7928 60.6606C65.7366 60.4148 65.2008 58.1406 64.9817 57.3056C64.6117 55.902 64.1943 54.3118 63.4158 54.3118C62.6373 54.3118 62.22 55.902 61.8499 57.3056C61.5125 58.5818 60.065 64.9187 59.7216 66.2127C59.248 68.0102 58.7566 69.8698 57.2854 70.0267C57.2233 70.0504 57.1522 70.0652 57.0812 70.0652C55.4472 70.0652 54.9351 68.1227 54.4408 66.2424C54.0944 64.9306 52.644 55.8723 52.3125 54.6139C51.9424 53.2103 51.5221 51.6201 50.7465 51.6201C49.971 51.6201 49.5507 53.2103 49.1806 54.6139C48.8521 55.8635 47.4016 67.64 47.0523 68.9637C46.558 70.844 46.0429 72.7865 44.4119 72.7865L44.4178 72.7836Z" fill="#666666"/>
</svg>
