<svg width="88" height="88" viewBox="0 0 88 88" fill="none" xmlns="http://www.w3.org/2000/svg">
<circle cx="44" cy="44" r="44" fill="#FEEDF1"/>
<path d="M66.6462 20.5599H21.6589C19.5421 20.5599 17.8203 22.2817 17.8203 24.3985V63.6221C17.8203 65.7376 19.5421 67.4595 21.6589 67.4595H66.6462C68.763 67.4595 70.4849 65.7376 70.4849 63.6221V24.3985C70.4849 22.2817 68.763 20.5599 66.6462 20.5599ZM68.951 63.6221C68.951 64.8927 67.9168 65.9255 66.6462 65.9255H21.6589C20.3883 65.9255 19.3542 64.8914 19.3542 63.6221V24.3985C19.3542 23.1266 20.3883 22.0938 21.6589 22.0938H66.6462C67.9168 22.0938 68.951 23.1279 68.951 24.3985V63.6221Z" fill="#666666"/>
<path d="M28.8133 56.2121C26.6991 56.2121 24.9785 57.9326 24.9785 60.0469C24.9785 62.1611 26.6991 63.8817 28.8133 63.8817C30.9276 63.8817 32.6481 62.1611 32.6481 60.0469C32.6481 57.9326 30.9276 56.2121 28.8133 56.2121ZM28.8133 62.3477C27.544 62.3477 26.5124 61.3149 26.5124 60.0469C26.5124 58.7788 27.544 57.746 28.8133 57.746C30.0826 57.746 31.1142 58.7788 31.1142 60.0469C31.1142 61.3149 30.0826 62.3477 28.8133 62.3477Z" fill="#666666"/>
<path d="M38.0164 56.2121C35.9022 56.2121 34.1816 57.9326 34.1816 60.0469C34.1816 62.1611 35.9022 63.8817 38.0164 63.8817C40.1307 63.8817 41.8512 62.1611 41.8512 60.0469C41.8512 57.9326 40.1307 56.2121 38.0164 56.2121ZM38.0164 62.3477C36.7471 62.3477 35.7156 61.3149 35.7156 60.0469C35.7156 58.7788 36.7471 57.746 38.0164 57.746C39.2858 57.746 40.3173 58.7788 40.3173 60.0469C40.3173 61.3149 39.2858 62.3477 38.0164 62.3477Z" fill="#666666"/>
<path d="M64.6051 25.6729H23.7006C23.2774 25.6729 22.9336 26.0167 22.9336 26.4398V53.3997C22.9336 53.8228 23.2774 54.1667 23.7006 54.1667H64.6051C65.0282 54.1667 65.372 53.8228 65.372 53.3997V26.4398C65.372 26.0167 65.0282 25.6729 64.6051 25.6729ZM63.8381 52.6328H24.4675V27.2068H63.8381V52.6328Z" fill="#666666"/>
<path d="M28.8125 44.7356H33.8156C33.9716 44.7356 34.1211 44.6896 34.2489 44.6014C34.3768 44.5132 34.4739 44.3905 34.5302 44.246L37.6466 36.1968L42.2496 48.0859C42.3059 48.2317 42.4043 48.3544 42.5321 48.4426C42.6599 48.5308 42.8108 48.5768 42.9654 48.5768C43.1201 48.5768 43.271 48.5308 43.3988 48.4426C43.5266 48.3544 43.6238 48.2317 43.68 48.0872L44.9762 44.7356H59.4896C59.6954 44.7356 59.8871 44.6564 60.0316 44.5119C60.176 44.3675 60.2565 44.1732 60.2565 43.9687C60.2565 43.7641 60.1773 43.5711 60.0329 43.4267C59.8871 43.2822 59.6954 43.2017 59.4896 43.2017H44.4508C44.2961 43.2017 44.1453 43.249 44.0175 43.3359C43.8896 43.4228 43.7912 43.5468 43.735 43.69L42.9629 45.6841L38.3599 33.7949C38.3036 33.6505 38.2065 33.5278 38.0774 33.4396C37.9483 33.3514 37.7987 33.3054 37.644 33.3054C37.4894 33.3054 37.3385 33.3527 37.2107 33.4396C37.0829 33.5265 36.9844 33.6505 36.9282 33.7937L33.2877 43.2004H28.8099C28.6054 43.2004 28.4124 43.2797 28.2679 43.4254C28.1235 43.5698 28.043 43.7629 28.043 43.9674C28.043 44.1719 28.1222 44.3649 28.2679 44.5106C28.4124 44.6538 28.6054 44.7343 28.8099 44.7343L28.8125 44.7356Z" fill="#666666"/>
</svg>
