<svg width="88" height="88" viewBox="0 0 88 88" fill="none" xmlns="http://www.w3.org/2000/svg">
<circle cx="44" cy="44" r="44" fill="#FEEDF1"/>
<path d="M32.1755 34.5424C32.1755 43.2006 33.9812 50.2199 27.7101 50.2199C21.4391 50.2199 16.3516 43.1966 16.3516 34.5424C16.3516 25.8882 21.4351 18.8649 27.7061 18.8649C33.9771 18.8649 32.1714 25.8842 32.1714 34.5424H32.1755Z" stroke="#666666" stroke-width="1.8" stroke-linecap="round" stroke-linejoin="round"/>
<path d="M55.8368 34.5424C55.8368 43.2006 54.0312 50.2199 60.3022 50.2199C66.5732 50.2199 71.6567 43.2006 71.6567 34.5424C71.6567 25.8842 66.5732 18.8649 60.3022 18.8649C54.0312 18.8649 55.8368 25.8842 55.8368 34.5424Z" stroke="#666666" stroke-width="1.8" stroke-linecap="round" stroke-linejoin="round"/>
<path d="M32.416 37.8975C32.416 37.8975 40.6798 31.4394 41.8713 51.1512C41.8713 55.0188 41.9811 54.9293 41.9811 54.9293" stroke="#666666" stroke-width="1.8" stroke-linecap="round" stroke-linejoin="round"/>
<path d="M55.2228 37.8975C55.2228 37.8975 46.9591 31.4394 45.7675 51.1512C45.7675 54.9862 45.6699 54.7666 45.6699 54.7666" stroke="#666666" stroke-width="1.8" stroke-linecap="round" stroke-linejoin="round"/>
<path d="M54.1681 61.6192C54.1681 64.8929 49.6173 65.6656 48.0516 66.8897C46.9129 67.7804 45.4814 69.8138 43.9279 69.8138C42.3744 69.8138 40.9876 67.7926 39.857 66.9304C38.2587 65.7063 33.6836 64.9255 33.6836 61.6151C33.6836 55.9663 40.2271 54.9252 43.9238 54.9252C47.6205 54.9252 54.164 55.9663 54.164 61.6151L54.1681 61.6192Z" stroke="#666666" stroke-width="1.8" stroke-linecap="round" stroke-linejoin="round"/>
</svg>
