<svg width="88" height="88" viewBox="0 0 88 88" fill="none" xmlns="http://www.w3.org/2000/svg">
<circle cx="44" cy="44" r="44" fill="#FEEDF1"/>
<path d="M66.7271 29.1093L58.6849 21.1978C58.1456 20.6653 57.1991 20.6663 56.6609 21.1978L55.5123 22.3279C54.9545 22.8767 54.9545 23.7694 55.5123 24.3182L57.9477 26.7143L53.078 31.5054L47.7712 26.2842C47.2134 25.7354 46.305 25.7354 45.7482 26.2842L44.5996 27.4142C44.0418 27.963 44.0418 28.8557 44.5996 29.4045L46.4597 31.2346L37.707 39.847H37.706L30.1339 47.299C29.5854 47.8387 29.2823 48.5569 29.2823 49.3207C29.2823 50.0846 29.5844 50.8038 30.1339 51.3435L30.7423 51.942L27.8058 56.2746C27.6584 56.4937 27.678 56.7727 27.8357 56.9766L20.7225 63.9731C20.607 64.0867 20.541 64.2419 20.541 64.4032V67.6534C20.541 67.8999 20.6915 68.1221 20.9225 68.2164C20.9988 68.2469 21.0792 68.2621 21.1596 68.2621C21.3205 68.2621 21.4782 68.2002 21.5968 68.0835L30.3628 59.4599C30.4721 59.5421 30.599 59.5938 30.732 59.5938C30.8505 59.5938 30.9701 59.5603 31.0753 59.4914L35.4779 56.6033L36.0862 57.2018C36.6533 57.7587 37.3967 58.0377 38.1411 58.0377C38.8855 58.0377 39.63 57.7587 40.197 57.2018L56.5238 41.1384L58.3848 42.9694C58.6632 43.2433 59.0303 43.3803 59.3963 43.3803C59.7623 43.3803 60.1294 43.2433 60.4078 42.9694L61.5564 41.8383C62.1142 41.2895 62.1142 40.3968 61.5564 39.848L56.2495 34.6268L61.1192 29.8357L63.5546 32.2317C63.8329 32.5056 64.2 32.6426 64.566 32.6426C64.932 32.6426 65.2991 32.5056 65.5785 32.2317L66.7271 31.1017C66.9972 30.8359 67.1457 30.4829 67.1457 30.1065C67.1457 29.7302 66.9972 29.3761 66.7271 29.1114V29.1093ZM21.7783 66.1835V64.6548L28.6987 57.846L29.0874 58.2284L29.4761 58.6108L21.7783 66.1835ZM34.585 55.7248L30.8103 58.201L29.1142 56.5323L31.631 52.8175L33.1075 54.2701L34.584 55.7228L34.585 55.7248ZM39.3217 56.3406C38.6711 56.9807 37.6112 56.9807 36.9606 56.3406L35.9945 55.389L33.9839 53.4109L31.0062 50.4812C30.6907 50.1718 30.5175 49.759 30.5175 49.3197C30.5175 48.8805 30.6907 48.4686 31.0062 48.1582L33.1632 46.036L34.7582 47.6054C34.8789 47.724 35.0376 47.7839 35.1954 47.7839C35.3531 47.7839 35.5119 47.724 35.6326 47.6054C35.8738 47.368 35.8738 46.9825 35.6326 46.7451L34.0375 45.1758L38.1411 41.1384L39.7351 42.7077C39.8558 42.8264 40.0145 42.8862 40.1723 42.8862C40.33 42.8862 40.4888 42.8264 40.6095 42.7077C40.8507 42.4703 40.8507 42.0849 40.6095 41.8475L39.0155 40.2782L43.1191 36.2408L44.7141 37.8101C44.8347 37.9288 44.9935 37.9886 45.1513 37.9886C45.309 37.9886 45.4678 37.9288 45.5884 37.8101C45.8297 37.5727 45.8297 37.1872 45.5884 36.9498L43.9934 35.3805L47.3309 32.0958L55.6474 40.2782L39.3206 56.3416L39.3217 56.3406ZM60.681 40.9771L59.5324 42.1082C59.4582 42.1812 59.3324 42.1812 59.2582 42.1082L45.4719 28.5433C45.3977 28.4703 45.3977 28.3465 45.4719 28.2735L46.6205 27.1434C46.6576 27.1069 46.7071 27.0886 46.7576 27.0886C46.8082 27.0886 46.8577 27.1069 46.8948 27.1434L53.7884 33.9258L54.937 35.0559L60.681 40.7073C60.7552 40.7803 60.7552 40.9041 60.681 40.9771V40.9771ZM55.3742 33.7656L54.6627 33.0656L53.9513 32.3656L58.821 27.5745L60.2438 28.9744L55.3742 33.7656V33.7656ZM65.8517 30.2394L64.7032 31.3695C64.6279 31.4425 64.5021 31.4425 64.4289 31.3695L61.5574 28.5443L59.2592 26.2832L56.3867 23.457C56.3124 23.3839 56.3124 23.2602 56.3867 23.1871L57.5363 22.0561C57.5837 22.0084 57.6425 22.0013 57.6724 22.0013C57.7023 22.0013 57.7611 22.0084 57.8095 22.0571L65.8517 29.9696C65.9002 30.0173 65.9074 30.0741 65.9074 30.1045C65.9074 30.1349 65.9002 30.1917 65.8517 30.2394V30.2394Z" fill="#666666"/>
</svg>
