<svg width="88" height="88" viewBox="0 0 88 88" fill="none" xmlns="http://www.w3.org/2000/svg">
<circle cx="44" cy="44" r="44" fill="#FEEDF1"/>
<path d="M38.5013 42.4006C37.2942 42.0099 36.0064 42.1141 34.8761 42.6909C32.5439 43.885 31.6168 46.7537 32.8096 49.0858C33.6495 50.7278 35.3188 51.6732 37.0481 51.6732C37.7747 51.6732 38.513 51.5065 39.2031 51.1536C40.3334 50.5742 41.1707 49.5923 41.5613 48.3839C41.952 47.1755 41.8478 45.889 41.271 44.7588C40.6941 43.6285 39.7097 42.7912 38.5013 42.4006V42.4006ZM40.0743 47.9035C39.8125 48.7147 39.25 49.3749 38.4922 49.7616C36.9231 50.5624 35.0011 49.94 34.2003 48.3735C33.3994 46.8083 34.0219 44.8838 35.5871 44.0829C36.0428 43.8486 36.5376 43.7314 37.0351 43.7314C37.3658 43.7314 37.6965 43.7834 38.0195 43.8876C38.8294 44.1493 39.4896 44.7119 39.8776 45.471C40.2657 46.2289 40.3347 47.0922 40.073 47.9035H40.0743Z" fill="#666666"/>
<path d="M47.9409 45.4619C45.972 46.4684 45.1907 48.8891 46.1973 50.8593C46.9069 52.2448 48.3159 53.043 49.7743 53.043C50.3876 53.043 51.0113 52.9011 51.5934 52.6029C52.5466 52.1146 53.2536 51.2851 53.5831 50.2655C53.9125 49.2459 53.8253 48.1599 53.337 47.2068C52.3304 45.2379 49.9071 44.4566 47.9409 45.4619V45.4619ZM52.096 49.785C51.8955 50.4061 51.4632 50.9127 50.8824 51.2109C49.6792 51.8268 48.2039 51.3476 47.5893 50.147C46.9747 48.9464 47.4525 47.4685 48.6531 46.8539C49.0086 46.6716 49.3888 46.5856 49.7639 46.5856C50.6545 46.5856 51.5153 47.0726 51.9476 47.919C52.2458 48.5011 52.2979 49.1626 52.0973 49.7863L52.096 49.785Z" fill="#666666"/>
<path d="M48.5782 43.6414C51.3661 42.2142 52.4756 38.7844 51.0497 35.9951C50.3583 34.6435 49.1824 33.6435 47.7383 33.176C46.2943 32.7085 44.7551 32.8322 43.4035 33.5237C42.0519 34.2138 41.0505 35.3909 40.5843 36.835C40.1182 38.2791 40.2419 39.8183 40.9333 41.1699C41.9373 43.1322 43.9335 44.2638 46.0013 44.2625C46.8711 44.2625 47.7527 44.0633 48.5795 43.6414H48.5782ZM42.324 40.4576C41.8227 39.4784 41.7328 38.3625 42.0714 37.3155C42.4099 36.2686 43.1352 35.4157 44.1145 34.9157C44.703 34.6136 45.3424 34.4612 45.9857 34.4612C46.4115 34.4612 46.8399 34.5289 47.2566 34.663C48.3035 35.0016 49.1564 35.7282 49.6564 36.7074C50.6903 38.7284 49.8869 41.2155 47.866 42.2494C45.8424 43.282 43.3579 42.4799 42.3227 40.4576H42.324Z" fill="#666666"/>
<path d="M67.432 45.5452C66.2561 45.2313 65.0256 45.3915 63.9708 46.0009C63.1453 46.4775 62.5124 47.1885 62.1205 48.0362L60.5227 47.6078C61.0358 45.2834 61.0553 42.8237 60.5162 40.3678L61.2233 40.1777C61.8718 41.4564 63.1882 42.2676 64.6115 42.2676C64.937 42.2676 65.2678 42.2247 65.5946 42.1374C67.6208 41.5944 68.8279 39.5032 68.2849 37.4757C67.7419 35.4483 65.648 34.2412 63.6245 34.7855C62.6426 35.0485 61.821 35.6788 61.3131 36.559C60.9381 37.2088 60.7689 37.938 60.8105 38.6711L60.1126 38.8586C59.3638 36.4978 58.1411 34.3649 56.5069 32.5757L57.6684 31.4142C58.4523 31.965 59.3664 32.2515 60.2858 32.2515C61.4538 32.2515 62.6231 31.8075 63.5112 30.9181C64.3992 30.0287 64.8472 28.9115 64.8472 27.6927C64.8472 26.4739 64.3732 25.328 63.5112 24.4672C61.7337 22.6885 58.8391 22.6885 57.0603 24.4672C56.1983 25.3293 55.7243 26.4739 55.7243 27.6927C55.7243 28.6458 56.0225 29.5495 56.5616 30.3126L55.3988 31.4754C54.5068 30.6642 53.5289 29.9363 52.4598 29.3178C51.3908 28.7005 50.2709 28.2187 49.1224 27.8515L49.3073 27.1601C49.3763 27.164 49.4453 27.1744 49.5131 27.1744C51.1928 27.1744 52.7346 26.052 53.1903 24.354C53.7333 22.3265 52.5262 20.2365 50.4988 19.6922C48.4713 19.1506 46.3814 20.3563 45.8371 22.3825C45.574 23.3643 45.7095 24.3904 46.2173 25.2707C46.5923 25.9204 47.1392 26.4309 47.7955 26.7616L47.6132 27.4427C45.2472 26.9218 42.7874 26.9296 40.3694 27.4609L39.9396 25.8579C40.7873 25.4673 41.4983 24.8344 41.9749 24.0089C42.5843 22.9528 42.7471 21.7236 42.4307 20.5465C41.7796 18.1166 39.2703 16.666 36.8431 17.321C35.666 17.6362 34.6829 18.3914 34.0734 19.4461C33.464 20.5022 33.3026 21.7314 33.6177 22.9086C33.9328 24.0857 34.6881 25.0688 35.7428 25.6782C36.446 26.0845 37.226 26.2916 38.0164 26.2916C38.1544 26.2916 38.2924 26.2772 38.4304 26.2642L38.8589 27.8659C36.4981 28.6146 34.3638 29.8373 32.576 31.4715L32.0786 30.9741C33.0434 29.4988 32.8794 27.496 31.5837 26.2017C30.0993 24.7186 27.6851 24.7186 26.2006 26.2017C24.7162 27.6862 24.7162 30.1003 26.2006 31.5848C26.9429 32.327 27.9169 32.6981 28.8922 32.6981C29.6175 32.6981 30.3428 32.4911 30.973 32.0796L31.4744 32.5809C30.6631 33.4729 29.9352 34.4508 29.318 35.5199C28.7008 36.589 28.219 37.7088 27.8518 38.8573L26.2631 38.4315C26.3478 37.5018 26.1551 36.5694 25.6785 35.7439C25.0691 34.6891 24.0859 33.9339 22.9075 33.6188C20.4816 32.969 17.971 34.4157 17.32 36.8442C16.6689 39.274 18.1169 41.7806 20.5467 42.4317C20.94 42.5372 21.3358 42.588 21.7251 42.588C23.4844 42.588 25.1173 41.5606 25.866 39.9433L27.4416 40.3652C26.9207 42.7312 26.9285 45.191 27.4598 47.6091L26.7619 47.7966C25.9663 46.2249 24.1524 45.3694 22.3827 45.8394C20.3566 46.3824 19.1495 48.4737 19.6925 50.5011C20.1482 52.1992 21.69 53.3216 23.3698 53.3216C23.6953 53.3216 24.0261 53.2786 24.3529 53.1914C25.3347 52.9284 26.1564 52.2981 26.6642 51.4179C27.0392 50.7681 27.2085 50.0389 27.1668 49.3058L27.8609 49.1196C28.6226 51.5168 29.8727 53.6354 31.4809 55.392L30.3128 56.5601C29.5498 56.021 28.6474 55.7215 27.6942 55.7215C26.4754 55.7215 25.3295 56.1968 24.4688 57.0588C23.6081 57.9208 23.1328 59.0654 23.1328 60.2842C23.1328 61.503 23.6068 62.6489 24.4688 63.5096C25.3295 64.3717 26.4754 64.847 27.6942 64.847C28.913 64.847 30.0589 64.3717 30.9196 63.5096C31.7817 62.6476 32.2556 61.503 32.2556 60.2842C32.2556 59.331 31.9562 58.4286 31.4184 57.6656L32.5851 56.4989C34.3912 58.1409 36.5345 59.374 38.8602 60.1175L38.6739 60.8103C36.9121 60.7139 35.2636 61.8546 34.7896 63.6229C34.2466 65.6504 35.4537 67.7416 37.4812 68.2846C37.8093 68.3719 38.1414 68.4161 38.4721 68.4161C39.131 68.4161 39.7821 68.243 40.3694 67.9044C41.2496 67.3953 41.8785 66.5749 42.1429 65.5931C42.4059 64.6113 42.2705 63.5852 41.7627 62.7049C41.3876 62.0551 40.8407 61.5447 40.1857 61.2139L40.372 60.5199C41.5517 60.7803 42.7653 60.9288 43.9971 60.9288C45.229 60.9288 46.4048 60.7934 47.6158 60.5277L48.0429 62.1202C46.0702 63.0357 44.9699 65.2584 45.5519 67.4291C46.0988 69.4644 47.9466 70.8108 49.961 70.8108C50.3503 70.8108 50.7475 70.76 51.1407 70.6545C53.5706 70.0022 55.0172 67.4955 54.3662 65.067C54.0511 63.8899 53.2958 62.9067 52.2411 62.2973C51.4155 61.8207 50.4832 61.628 49.5547 61.714L49.125 60.1097C51.5223 59.348 53.6422 58.1018 55.3988 56.495L55.9053 57.0015C54.9404 58.4768 55.1045 60.4795 56.4001 61.7739C57.1424 62.5161 58.1164 62.8872 59.0917 62.8872C60.067 62.8872 61.041 62.5161 61.7832 61.7739C63.2677 60.2894 63.2677 57.8752 61.7832 56.3908C60.4889 55.0964 58.4862 54.9324 57.0108 55.8973L56.5004 55.3868C58.1411 53.5807 59.3768 51.4413 60.1204 49.117L61.722 49.5467C61.6374 50.4764 61.8301 51.4074 62.3067 52.2343C62.9161 53.2891 63.9005 54.0443 65.0777 54.3594C65.4709 54.4649 65.8694 54.517 66.2665 54.517C67.0569 54.517 67.8356 54.3099 68.5388 53.9037C69.5935 53.2956 70.3488 52.3111 70.6639 51.134C71.315 48.7042 69.867 46.1975 67.4372 45.5465L67.432 45.5452ZM47.3489 22.7862C47.6171 21.7848 48.526 21.1233 49.5157 21.1233C49.7071 21.1233 49.9024 21.1494 50.0951 21.2001C50.6746 21.3551 51.1577 21.7262 51.4572 22.2445C51.7567 22.7627 51.8361 23.3669 51.6811 23.9464C51.5262 24.5258 51.1551 25.0089 50.6368 25.3084C50.1186 25.6079 49.5157 25.6874 48.9349 25.5324C48.3567 25.3774 47.8723 25.0063 47.5729 24.4881C47.2734 23.9698 47.1939 23.3656 47.3489 22.7862V22.7862ZM20.953 40.9199C19.3552 40.4915 18.4034 38.843 18.8318 37.2466C19.1899 35.9079 20.4061 35.0225 21.7291 35.0225C21.9856 35.0225 22.246 35.0563 22.5051 35.1253C23.2786 35.3324 23.9258 35.8285 24.3255 36.5226C24.7266 37.2166 24.8321 38.0239 24.625 38.7987C24.1966 40.3965 22.552 41.3457 20.9517 40.9199H20.953ZM40.6311 65.1881C40.4761 65.7676 40.105 66.2507 39.5868 66.5515C39.0672 66.851 38.4617 66.9304 37.8848 66.7754C36.6895 66.4564 35.9785 65.2233 36.2988 64.0279C36.4538 63.4484 36.8249 62.9653 37.3432 62.6658C37.8627 62.3664 38.4656 62.2882 39.0451 62.4419C39.6232 62.5968 40.1076 62.9679 40.4071 63.4862C40.7066 64.0045 40.786 64.6087 40.6311 65.1881ZM62.6674 37.3403C62.9669 36.8221 63.4513 36.4496 64.0294 36.296C64.2222 36.2439 64.4175 36.2192 64.6089 36.2192C65.5998 36.2192 66.5074 36.8819 66.7757 37.882C67.096 39.0774 66.385 40.3105 65.1897 40.6295C63.9917 40.9499 62.7611 40.2376 62.4421 39.0422C62.2872 38.4628 62.3666 37.8586 62.6661 37.3403H62.6674ZM58.1658 25.5702C58.7505 24.9855 59.5188 24.6938 60.2871 24.6938C61.0553 24.6938 61.8236 24.9855 62.4083 25.5702C62.9929 26.1548 63.2872 26.8892 63.2872 27.6914C63.2872 28.4935 62.976 29.2461 62.4083 29.8126C61.2389 30.9819 59.3365 30.9819 58.1672 29.8126C57.6007 29.2461 57.2882 28.4935 57.2882 27.6914C57.2882 26.8892 57.5994 26.1366 58.1672 25.5702H58.1658ZM36.5254 24.324C35.8314 23.9229 35.3352 23.2758 35.1282 22.5023C34.9212 21.7288 35.0266 20.9202 35.4277 20.2261C35.8287 19.5321 36.4746 19.0373 37.2481 18.8289C37.5072 18.7599 37.7677 18.7261 38.0242 18.7261C39.3485 18.7261 40.5634 19.6115 40.9228 20.9501C41.1298 21.7236 41.023 22.5322 40.6233 23.2263C40.2222 23.9203 39.5763 24.4152 38.8029 24.6235C38.0268 24.8318 37.2207 24.7251 36.5267 24.324H36.5254ZM27.3075 30.4793C26.4324 29.6042 26.4324 28.181 27.3075 27.3059C27.745 26.8684 28.3192 26.6496 28.8935 26.6496C29.4677 26.6496 30.042 26.8684 30.4795 27.3059C31.3546 28.181 31.3546 29.6042 30.4795 30.4793C29.6045 31.3543 28.1812 31.3543 27.3062 30.4793H27.3075ZM25.3113 50.6353C25.0118 51.1535 24.5274 51.5259 23.9492 51.6796C22.7565 51.9986 21.522 51.2876 21.203 50.0936C21.048 49.5141 21.1275 48.9099 21.427 48.3917C21.7265 47.8734 22.2109 47.501 22.789 47.3473C23.9844 47.0244 25.2162 47.7393 25.5365 48.9334C25.6915 49.5128 25.6121 50.117 25.3126 50.6353H25.3113ZM29.8128 62.4054C28.6786 63.5383 26.7033 63.5383 25.5717 62.4054C25.0053 61.839 24.6928 61.0863 24.6928 60.2842C24.6928 59.4821 25.004 58.7307 25.5717 58.1643C26.1394 57.5979 26.8908 57.2854 27.6929 57.2854C28.495 57.2854 29.2464 57.5979 29.8141 58.1643C30.3819 58.7307 30.6931 59.4834 30.6931 60.2842C30.6931 61.085 30.3819 61.839 29.8141 62.4054H29.8128ZM51.4533 63.6516C52.1473 64.0526 52.6434 64.6998 52.8505 65.4733C53.2789 67.071 52.327 68.7182 50.7306 69.1467C49.1315 69.5738 47.4843 68.6232 47.0572 67.0254C46.6288 65.4277 47.5807 63.7792 49.1771 63.3521C49.9532 63.1463 50.7605 63.2518 51.452 63.6516H51.4533ZM47.9687 58.8414C39.7756 61.0369 31.3298 56.1577 29.1357 47.9672C28.0731 43.9995 28.6174 39.8561 30.6722 36.2986C32.7257 32.7424 36.0423 30.198 40.01 29.1341C41.3355 28.7787 42.6794 28.6029 44.0154 28.6029C45.3514 28.6029 46.6653 28.7774 47.9492 29.1211C47.957 29.1237 47.9622 29.1302 47.97 29.1315C47.9791 29.1341 47.9882 29.1328 47.9974 29.1354C49.2696 29.4805 50.5066 29.9936 51.6785 30.6707C55.236 32.7242 57.7804 36.0395 58.843 40.0071C61.0371 48.1963 56.1592 56.6447 47.97 58.8401L47.9687 58.8414ZM60.6699 57.4963C61.5449 58.3714 61.5449 59.7946 60.6699 60.6696C59.7961 61.5447 58.3729 61.5447 57.4965 60.6696C56.6215 59.7946 56.6215 58.3714 57.4965 57.4963C58.3716 56.6213 59.7948 56.6213 60.6699 57.4963ZM69.1469 50.729C68.9398 51.5038 68.4437 52.1497 67.7497 52.5494C67.0556 52.9492 66.2457 53.0547 65.4735 52.8489C64.7 52.6419 64.0529 52.1458 63.6531 51.4517C63.2521 50.7577 63.1466 49.949 63.3536 49.1756C63.5607 48.4008 64.0568 47.7549 64.7508 47.3538C65.2131 47.0869 65.7261 46.9515 66.2457 46.9515C66.5061 46.9515 66.7692 46.9866 67.027 47.0557C68.6247 47.4828 69.5753 49.1326 69.1482 50.729H69.1469Z" fill="#666666"/>
</svg>
