<svg width="88" height="88" viewBox="0 0 88 88" fill="none" xmlns="http://www.w3.org/2000/svg">
<circle cx="44" cy="44" r="44" fill="#FEEDF1"/>
<path d="M17.2969 57.5815H25.732" stroke="#666666" stroke-width="2" stroke-miterlimit="10" stroke-linecap="round"/>
<path d="M25.6785 57.2333C23.8228 57.2333 22.1452 56.4933 20.9291 55.2968C19.7131 54.1004 18.9609 52.4498 18.9609 50.624" stroke="#666666" stroke-width="2" stroke-miterlimit="10" stroke-linecap="round"/>
<path d="M25.6785 58.4162C23.8228 58.4162 22.1452 59.1562 20.9291 60.3526C19.7131 61.5491 18.9609 63.1997 18.9609 65.0255" stroke="#666666" stroke-width="2" stroke-miterlimit="10" stroke-linecap="round"/>
<path d="M69.4328 59.1928L65.248 60.0181C53.9497 62.2473 42.4264 63.1856 30.9079 62.8167L30.7345 62.8121C27.9134 62.7222 25.6758 60.4469 25.6758 57.669C25.6758 54.8266 28.0189 52.5213 30.9079 52.5213C42.4288 52.1525 53.9591 53.0216 65.2879 55.1171L69.4117 55.8801C70.2224 56.03 70.8105 56.7262 70.8105 57.5376C70.8105 58.3422 70.2341 59.0338 69.4328 59.1928V59.1928Z" stroke="#666666" stroke-width="2" stroke-miterlimit="10" stroke-linecap="round"/>
<path d="M35.8286 48.2636C34.718 43.3349 36.1098 37.9705 40.0064 34.1368C46.0702 28.1707 55.9041 28.1707 61.968 34.1368C66.5159 38.6113 67.6547 45.1722 65.3795 50.691" stroke="#666666" stroke-width="2" stroke-miterlimit="10" stroke-linecap="round"/>
<path d="M57.0371 27.523C57.7119 26.6308 58.5976 25.7732 59.6567 25.0286C63.1174 22.5989 68.6283 24.3555 68.6283 24.3555C68.6283 24.3555 68.5299 30.0542 65.0692 32.4862" stroke="#666666" stroke-width="2" stroke-miterlimit="10" stroke-linecap="round"/>
<path d="M46.1602 38.3509L46.3335 38.178" stroke="#666666" stroke-width="2" stroke-miterlimit="10" stroke-linecap="round"/>
<path d="M49.3145 34.2152L49.6659 33.8694" stroke="#666666" stroke-width="2" stroke-miterlimit="10" stroke-linecap="round"/>
<path d="M55.0938 34.7314L55.4452 34.3856" stroke="#666666" stroke-width="2" stroke-miterlimit="10" stroke-linecap="round"/>
<path d="M49.6641 42.143L49.8398 41.9701" stroke="#666666" stroke-width="2" stroke-miterlimit="10" stroke-linecap="round"/>
<path d="M55.9707 39.0403L56.1464 38.8674" stroke="#666666" stroke-width="2" stroke-miterlimit="10" stroke-linecap="round"/>
<path d="M51.2402 37.8345L51.5894 37.4887" stroke="#666666" stroke-width="2" stroke-miterlimit="10" stroke-linecap="round"/>
<path d="M31.7744 40.2665C31.3808 39.5357 30.8981 38.8395 30.3053 38.2125C26.0409 33.678 17.7792 34.3811 17.7792 34.3811C17.7792 34.3811 16.4343 42.4311 20.701 46.9656C22.2896 48.6531 24.4335 49.6144 26.4978 50.1585" stroke="#666666" stroke-width="2" stroke-miterlimit="10" stroke-linecap="round"/>
<path d="M38.2267 28.9085C35.7079 25.7618 32.2003 23.9268 32.2003 23.9268C32.2003 23.9268 28.5334 27.8988 27.7227 32.6454" stroke="#666666" stroke-width="2" stroke-miterlimit="10" stroke-linecap="round"/>
<path d="M21.8242 38.4059L29.2494 45.7552" stroke="#666666" stroke-width="2" stroke-miterlimit="10" stroke-linecap="round"/>
<path d="M25.5679 41.8573L25.4531 38.1688" stroke="#666666" stroke-width="2" stroke-miterlimit="10" stroke-linecap="round"/>
<path d="M33.1367 27.9286L33.9755 37.2419" stroke="#666666" stroke-width="2" stroke-miterlimit="10" stroke-linecap="round"/>
<path d="M33.4428 35.573L30.1719 33.4729" stroke="#666666" stroke-width="2" stroke-miterlimit="10" stroke-linecap="round"/>
<path d="M33.709 32.447L35.7943 29.8236" stroke="#666666" stroke-width="2" stroke-miterlimit="10" stroke-linecap="round"/>
<path d="M27.7218 44.6605L23.291 45.0017" stroke="#666666" stroke-width="2" stroke-miterlimit="10" stroke-linecap="round"/>
</svg>
