<svg width="88" height="88" viewBox="0 0 88 88" fill="none" xmlns="http://www.w3.org/2000/svg">
<circle cx="44" cy="44" r="44" fill="#FEEDF1"/>
<path d="M71.5347 55.1591C69.8979 45.1188 65.1128 36.337 58.0599 30.4334C56.5519 29.1702 54.496 28.8977 52.6942 29.7165C50.878 30.5424 49.7495 32.2748 49.7495 34.2384V38.6405C48.2416 38.3135 47.1082 36.9922 47.1082 35.4115V26.2516C47.1082 25.8594 46.7842 25.5406 46.3856 25.5406H42.4303C42.0317 25.5406 41.7077 25.8594 41.7077 26.2516V35.4127C41.7077 36.9934 40.5743 38.3147 39.0664 38.6417V34.2395C39.0664 32.276 37.9379 30.5424 36.1216 29.7177C34.3199 28.8988 32.2627 29.1714 30.756 30.4346C23.7042 36.3381 18.9192 45.1188 17.2824 55.1591C16.9427 57.2435 17.5437 59.3551 18.93 60.9561C20.3042 62.5416 22.3071 63.4516 24.4245 63.4516H31.8316C35.8205 63.4516 39.0664 60.2581 39.0664 56.3335V44.0014C41.0669 43.8367 42.953 43.0013 44.4079 41.6243C45.8629 43.0013 47.749 43.8367 49.7495 44.0014V56.3335C49.7495 60.2581 52.9953 63.4516 56.9843 63.4516H64.3914C66.5088 63.4516 68.5117 62.5416 69.8859 60.9561C71.2734 59.3551 71.8732 57.2423 71.5335 55.1591H71.5347ZM37.6223 56.3335C37.6223 59.4748 35.0256 62.0296 31.8328 62.0296H24.4245C22.7311 62.0296 21.1292 61.3021 20.0296 60.0341C18.9179 58.7496 18.4362 57.0563 18.7096 55.3855C20.2922 45.6781 24.9038 37.202 31.6931 31.5176C32.783 30.6076 34.2127 30.4156 35.517 31.0081C36.8154 31.5982 37.6223 32.8377 37.6223 34.2395V56.3335V56.3335ZM44.9547 40.1265C44.8174 39.9713 44.6187 39.8824 44.4091 39.8824C44.1996 39.8824 44.0009 39.9713 43.8636 40.1265C42.6266 41.526 40.9092 42.3969 39.0676 42.5794V40.0921C41.3777 39.7485 43.1542 37.7814 43.1542 35.4139V26.9626H45.6641V35.4127C45.6641 37.7803 47.4406 39.7485 49.7507 40.091V42.5782C47.9091 42.3957 46.1917 41.526 44.9547 40.1253V40.1265ZM68.7875 60.0341C67.6891 61.3021 66.086 62.0296 64.3926 62.0296H56.9855C53.7939 62.0296 51.196 59.4748 51.196 56.3335V34.2395C51.196 32.8365 52.0029 31.5982 53.3013 31.0081C53.8023 30.7806 54.3226 30.668 54.8345 30.668C55.6535 30.668 56.4532 30.956 57.124 31.5165C63.9145 37.2008 68.5249 45.6769 70.1075 55.3843C70.3797 57.0551 69.8992 58.7496 68.7875 60.033V60.0341Z" fill="#666666"/>
</svg>
