<svg width="88" height="88" viewBox="0 0 88 88" fill="none" xmlns="http://www.w3.org/2000/svg">
<circle cx="44" cy="44" r="44" fill="#FEEDF1"/>
<path d="M68.3345 24.873C67.5636 23.7174 66.3968 22.9589 65.0493 22.739C64.7003 22.6818 64.4277 22.4091 64.3716 22.0613C64.1517 20.7138 63.3943 19.5469 62.2375 18.775C60.6297 17.7035 58.4732 17.7091 56.8722 18.7884C54.9906 20.0563 54.2153 22.417 54.985 24.5286C55.3025 25.4004 55.0758 26.3933 54.4083 27.062L48.5043 32.966C47.8379 33.6336 46.8438 33.8602 45.9709 33.5416C43.8593 32.7719 41.4997 33.5472 40.2307 35.4288C39.7573 36.13 39.5037 36.939 39.442 37.7603C38.605 37.822 37.7938 38.0901 37.106 38.5535C35.2255 39.8214 34.4491 42.182 35.2188 44.2936C35.5363 45.1643 35.3097 46.1584 34.6421 46.8271L28.7381 52.731C28.0706 53.3986 27.0765 53.6264 26.2047 53.3066C24.0931 52.5403 21.7324 53.3133 20.4646 55.1961C19.3841 56.7971 19.3785 58.9536 20.4511 60.5614C21.223 61.7171 22.3899 62.4756 23.7374 62.6955C24.0864 62.7527 24.3579 63.0253 24.4151 63.3731C24.635 64.7207 25.3935 65.8875 26.5503 66.6595C27.3514 67.1935 28.2871 67.4595 29.2228 67.4595C30.1586 67.4595 31.1112 67.1879 31.9156 66.646C33.7961 65.3782 34.5725 63.0175 33.8028 60.9059C33.4853 60.0341 33.7119 59.0411 34.3795 58.3724L40.2835 52.4685C40.9511 51.8009 41.9463 51.5754 42.8169 51.8929C44.9274 52.6615 47.2881 51.8862 48.5571 50.0046C49.0204 49.3157 49.2886 48.5056 49.3503 47.6686C50.1716 47.608 50.9794 47.3533 51.6807 46.8798C53.5612 45.612 54.3376 43.2513 53.5679 41.1397C53.2504 40.2679 53.477 39.2738 54.1446 38.6062L60.0485 32.7023C60.7161 32.0347 61.7113 31.8092 62.582 32.1267C64.6936 32.8942 67.0543 32.12 68.3221 30.2373C69.4026 28.6362 69.4082 26.4797 68.3356 24.8719L68.3345 24.873ZM43.2758 50.6273C41.9148 50.1325 40.3654 50.4814 39.3298 51.517L33.4258 57.421C32.3902 58.4566 32.0402 60.006 32.5361 61.367C33.0926 62.8963 32.5271 64.6085 31.1605 65.5296C30.0071 66.3094 28.4532 66.3128 27.2953 65.5397C26.4526 64.9776 25.9006 64.1316 25.7424 63.1566C25.5921 62.2366 24.8729 61.5185 23.9528 61.367C22.9778 61.2077 22.1318 60.6557 21.5708 59.8142C20.7978 58.6552 20.8023 57.1023 21.5809 55.9478C22.5021 54.5801 24.2143 54.0146 25.7435 54.5722C27.1045 55.0693 28.654 54.7181 29.6896 53.6825L35.5947 47.7785C36.6303 46.7418 36.9792 45.1923 36.4833 43.8325C35.9268 42.3032 36.4922 40.591 37.8588 39.6699C38.3491 39.3378 38.927 39.1437 39.5272 39.0988C39.6484 39.6957 39.8706 40.2746 40.2173 40.7953C40.9892 41.952 42.1561 42.7105 43.5036 42.9304C43.8525 42.9876 44.1241 43.2603 44.1813 43.6081C44.4012 44.9567 45.1597 46.1225 46.3164 46.8933C46.8359 47.24 47.4149 47.4621 48.0118 47.5833C47.9658 48.1825 47.7728 48.7603 47.4418 49.2517C46.5195 50.6183 44.8096 51.1838 43.2781 50.6262L43.2758 50.6273ZM67.2057 29.4867C66.2846 30.8544 64.5735 31.4199 63.0431 30.8622C61.6821 30.3663 60.1327 30.7164 59.0971 31.752L53.1931 37.6559C52.1575 38.6915 51.8086 40.241 52.3034 41.602C52.8599 43.1301 52.2944 44.8423 50.9278 45.7634C49.7733 46.5421 48.2205 46.5466 47.0614 45.7735C46.2199 45.2125 45.6679 44.3666 45.5086 43.3915C45.3582 42.4715 44.6391 41.7534 43.719 41.602C42.7451 41.4438 41.898 40.8906 41.337 40.0491C40.564 38.8901 40.5673 37.3373 41.346 36.1827C42.0304 35.1684 43.1502 34.5951 44.3069 34.5951C44.7086 34.5951 45.1148 34.6647 45.5086 34.8083C46.8707 35.3031 48.4191 34.9541 49.4547 33.9185L55.3586 28.0146C56.3942 26.979 56.7443 25.4295 56.2483 24.0686C55.6907 22.5404 56.2562 20.8282 57.6239 19.906C58.7784 19.1273 60.3324 19.1228 61.4892 19.8959C62.3318 20.458 62.8827 21.304 63.042 22.279C63.1924 23.199 63.9116 23.9171 64.8316 24.0686C65.8066 24.2279 66.6526 24.7799 67.2136 25.6214C67.9866 26.7804 67.9833 28.3333 67.2046 29.4878L67.2057 29.4867Z" fill="#666666"/>
</svg>
