<svg width="80" height="80" viewBox="0 0 80 80" fill="none" xmlns="http://www.w3.org/2000/svg">
<path d="M48.8438 40.8974C48.8438 41.9734 49.7164 42.8495 50.7882 42.8495C51.86 42.8495 52.7327 41.9734 52.7327 40.8974C52.7327 39.8214 51.86 38.9453 50.7882 38.9453C49.7164 38.9453 48.8438 39.8214 48.8438 40.8974Z" fill="#F94973"/>
<path d="M29.2101 38.9414C28.1383 38.9414 27.2656 39.8175 27.2656 40.8935C27.2656 41.9695 28.1383 42.8456 29.2101 42.8456C30.2819 42.8456 31.1545 41.9695 31.1545 40.8935C31.1545 39.8175 30.2819 38.9414 29.2101 38.9414Z" fill="#F94973"/>
<path d="M76.5273 29.8574V24.0482C76.5273 10.7894 65.7814 0 52.5759 0H27.4299C14.2244 0.00587976 3.47852 10.7894 3.47852 24.0482V29.8574C1.42889 30.7747 0 32.8326 0 35.2198V44.351C0 47.5908 2.62353 50.2249 5.85023 50.2249H10.6756V50.5542C10.6756 66.7882 23.8343 80 40.0029 80C48.8222 80 57.091 76.0664 62.6894 69.2165C63.0115 68.8226 62.9529 68.2405 62.5606 67.9112C62.1682 67.5878 61.5885 67.6466 61.2605 68.0406C56.0135 74.4671 48.2659 78.1479 39.9971 78.1479C24.8415 78.1479 12.5145 65.771 12.5145 50.5542V24.0482C12.5145 15.793 19.2021 9.07835 27.4241 9.07835H52.5701C60.792 9.07835 67.4797 15.793 67.4797 24.0482V50.5542C67.4797 51.783 67.3977 53.0178 67.2396 54.229C67.1752 54.7347 67.5265 55.1992 68.0302 55.2697C68.5338 55.3344 68.9964 54.9816 69.0667 54.476C69.2365 53.1883 69.3243 51.8712 69.3243 50.5601V50.2308H74.1498C74.3196 50.2308 74.4894 50.219 74.6534 50.2073C74.2728 56.428 69.1135 61.0378 62.3439 61.0378H42.1872C41.6778 61.0378 41.2678 61.4494 41.2678 61.9609C41.2678 62.4724 41.6778 62.884 42.1872 62.884H62.3439C70.3375 62.884 76.3809 57.2453 76.5156 49.7251C78.5653 48.8138 80 46.75 80 44.3569V35.2256C80 32.8326 78.5653 30.7747 76.5215 29.8633L76.5273 29.8574ZM5.85023 48.3787C3.64249 48.3787 1.84467 46.5736 1.84467 44.3569V35.2256C1.84467 33.009 3.64249 31.2039 5.85023 31.2039H10.6756V48.3787H5.85023ZM52.5759 7.22622H27.4299C18.189 7.22622 10.6756 14.77 10.6756 24.0482V29.3459H5.85023C5.67455 29.3459 5.49887 29.3576 5.32318 29.3753V24.0482C5.32318 11.8124 15.2375 1.85212 27.4299 1.85212H52.5759C64.7683 1.85212 74.6827 11.8124 74.6827 24.0482V29.3753C74.507 29.3576 74.3313 29.3459 74.1556 29.3459H69.3302V24.0482C69.3302 14.77 61.8168 7.22622 52.5759 7.22622ZM78.1612 44.351C78.1612 46.5677 76.3634 48.3728 74.1556 48.3728H69.3302V31.198H74.1556C76.3634 31.198 78.1612 33.0031 78.1612 35.2198V44.351Z" fill="#F94973"/>
<path d="M31.7206 30.1013L33.3252 25.6503C35.8667 27.8787 40.4227 30.7128 47.1221 30.7128C47.5086 30.7128 47.8541 30.4717 47.9888 30.1013L49.5934 25.6503C52.1349 27.8787 56.6909 30.7128 63.3903 30.7128C63.8998 30.7128 64.3097 30.3012 64.3097 29.7897C64.3097 29.2781 63.8998 28.8665 63.3903 28.8665C56.3162 28.8665 51.8772 25.421 49.8627 23.369C49.6402 23.1455 49.3181 23.0456 49.0078 23.1161C48.6974 23.1867 48.4456 23.4043 48.3402 23.7041L46.4779 28.8548C39.7786 28.6549 35.5446 25.3563 33.5945 23.369C33.372 23.1455 33.0499 23.0456 32.7395 23.1161C32.4292 23.1867 32.1774 23.4043 32.072 23.7041L30.2156 28.8489C24.2307 28.5079 19.1183 23.5042 18.3804 20.8466C18.2457 20.3527 17.7363 20.0704 17.2443 20.2057C16.7524 20.3409 16.4655 20.8524 16.606 21.3463C17.4903 24.5273 23.3288 30.7187 30.8597 30.7187C31.2462 30.7187 31.5918 30.4776 31.7264 30.1072L31.7206 30.1013Z" fill="#F94973"/>
</svg>
