<svg width="80" height="80" viewBox="0 0 80 80" fill="none" xmlns="http://www.w3.org/2000/svg">
<path d="M69.4641 32.7006H64.6708V13.3458C64.6708 5.98774 58.683 0 51.325 0H13.3458C5.98774 0 0 5.98774 0 13.3458V36.3796C0 43.5671 5.71048 49.4481 12.8446 49.7147L18.2671 60.0587C18.4111 60.3359 18.699 60.5065 19.0083 60.5065C19.3175 60.5065 19.6054 60.3359 19.7494 60.0587L25.1666 49.7254H35.2386V61.0984C35.2386 66.9102 39.968 71.6396 45.7798 71.6396H60.1813L64.3295 79.5521C64.4735 79.8294 64.7614 80 65.0706 80C65.3799 80 65.6678 79.8294 65.8118 79.5521L69.9653 71.6289C75.5425 71.3623 80 66.7449 80 61.0984V43.2311C80 37.4194 75.2706 32.6899 69.4588 32.6899L69.4641 32.7006ZM24.6601 48.0512C24.3455 48.0512 24.0629 48.2218 23.919 48.4991L19.0083 57.8619L14.0976 48.4991C13.9536 48.2218 13.6604 48.0512 13.3458 48.0512C6.91016 48.0512 1.67956 42.8152 1.67956 36.385V13.3458C1.67956 6.91016 6.9155 1.67955 13.3458 1.67955H51.325C57.7606 1.67955 62.9912 6.91549 62.9912 13.3458V36.3796C62.9912 42.8153 57.7553 48.0459 51.325 48.0459H24.6601V48.0512ZM78.3311 61.1037C78.3311 65.9877 74.3535 69.9653 69.4641 69.9653C69.1496 69.9653 68.867 70.136 68.723 70.4132L65.0813 77.3554L61.4396 70.4132C61.2957 70.136 61.0077 69.9653 60.6985 69.9653H45.7905C40.9064 69.9653 36.9288 65.9877 36.9288 61.1037V49.7307H51.3356C58.6937 49.7307 64.6814 43.743 64.6814 36.385V34.3802H69.4748C74.3588 34.3802 78.3364 38.3578 78.3364 43.2418V61.109L78.3311 61.1037Z" fill="#1F7AD3"/>
<path d="M49.024 15.6523H14.7824C14.3186 15.6523 13.9453 16.0256 13.9453 16.4895C13.9453 16.9533 14.3186 17.3266 14.7824 17.3266H49.024C49.4878 17.3266 49.8611 16.9533 49.8611 16.4895C49.8611 16.0256 49.4878 15.6523 49.024 15.6523Z" fill="#1F7AD3"/>
<path d="M49.024 23.8906H14.7824C14.3186 23.8906 13.9453 24.2639 13.9453 24.7277C13.9453 25.1916 14.3186 25.5648 14.7824 25.5648H49.024C49.4878 25.5648 49.8611 25.1916 49.8611 24.7277C49.8611 24.2639 49.4878 23.8906 49.024 23.8906Z" fill="#1F7AD3"/>
<path d="M32.3375 32.1406H14.7902C14.3264 32.1406 13.9531 32.5139 13.9531 32.9777C13.9531 33.4416 14.3264 33.8148 14.7902 33.8148H32.3375C32.8014 33.8148 33.1747 33.4416 33.1747 32.9777C33.1747 32.5139 32.7961 32.1406 32.3375 32.1406Z" fill="#1F7AD3"/>
</svg>
