<svg width="16" height="16" viewBox="0 0 16 16" fill="none" xmlns="http://www.w3.org/2000/svg">
<path fill-rule="evenodd" clip-rule="evenodd" d="M14.1134 10.5732C13.434 10.1348 12.5509 9.6507 11.7527 9.99777C11.1413 10.2718 10.7506 11.3039 10.3515 11.8245C10.1477 12.0985 9.90146 12.135 9.58727 11.998C7.28601 11.0116 5.51973 9.35843 4.24597 7.07506C4.03368 6.71886 4.06765 6.44485 4.33089 6.11605C4.71302 5.63198 5.19705 5.07484 5.29895 4.42636C5.40085 3.76875 5.12062 3.00154 4.86587 2.42613C4.54318 1.67719 4.18653 0.617709 3.49021 0.197571C2.85333 -0.186035 2.01265 0.0240346 1.44371 0.526375C0.458666 1.38492 -0.00837802 2.73667 0.000113698 4.07016C0.000113698 4.45376 0.0510637 4.82823 0.127489 5.19357C0.322799 6.07038 0.704926 6.89239 1.12951 7.67787C1.4522 8.27155 1.80036 8.83782 2.17399 9.38583C3.40529 11.1851 4.9423 12.7469 6.71706 13.916C7.6002 14.5006 8.55977 15.012 9.54481 15.3682C10.6572 15.761 11.6423 16.172 12.8396 15.9254C14.0964 15.6696 15.3277 14.8385 15.8287 13.5324C15.973 13.1488 16.0495 12.7195 15.9645 12.3085C15.7947 11.4683 14.7332 10.9659 14.1049 10.564L14.1134 10.5732Z" fill="#F94973"/>
</svg>
