<svg width="50" height="50" viewBox="0 0 50 50" fill="none" xmlns="http://www.w3.org/2000/svg">
<path d="M25 0.609381C11.7452 0.609379 1 11.3545 1 24.6094C1 37.8642 11.7452 48.6094 25 48.6094C38.2548 48.6094 49 37.8642 49 24.6094C49 11.3545 38.2548 0.609382 25 0.609381Z" stroke="#666666" stroke-miterlimit="10"/>
<path d="M24.6992 33.6094L15.8855 25.0448C15.8265 24.9877 15.7796 24.9199 15.7476 24.8452C15.7156 24.7704 15.6992 24.6903 15.6992 24.6094C15.6992 24.5284 15.7156 24.4483 15.7476 24.3736C15.7796 24.2989 15.8265 24.231 15.8855 24.174L24.6992 15.6094" stroke="#666666" stroke-miterlimit="10" stroke-linecap="round"/>
<path d="M15.7 24.6094L35.5 24.6094" stroke="#666666" stroke-miterlimit="10" stroke-linecap="round"/>
</svg>
