<svg width="32" height="33" viewBox="0 0 32 33" fill="none" xmlns="http://www.w3.org/2000/svg">
<path d="M32 16.9336C32 8.09704 24.8366 0.933593 16 0.933593C7.16344 0.933593 -1.08564e-06 8.09704 -6.99382e-07 16.9336C-3.13124e-07 25.7701 7.16344 32.9336 16 32.9336C24.8366 32.9336 32 25.7701 32 16.9336Z" fill="#F94973"/>
<path d="M10 16.7344L15.7097 10.8586C15.7478 10.8192 15.793 10.788 15.8428 10.7667C15.8926 10.7453 15.9461 10.7344 16 10.7344C16.054 10.7344 16.1074 10.7453 16.1572 10.7667C16.207 10.788 16.2522 10.8192 16.2903 10.8586L22 16.7344" stroke="white" stroke-miterlimit="10" stroke-linecap="round"/>
<path d="M16 10.7336L16 23.9336" stroke="white" stroke-miterlimit="10" stroke-linecap="round"/>
</svg>
