<svg width="34" height="34" viewBox="0 0 34 34" fill="none" xmlns="http://www.w3.org/2000/svg">
<path d="M1 16.9336C1 25.7701 8.16345 32.9336 17 32.9336C25.8366 32.9336 33 25.7701 33 16.9336C33 8.09704 25.8366 0.933593 17 0.933593C8.16345 0.933593 1 8.09704 1 16.9336Z" stroke="#666666" stroke-miterlimit="10"/>
<path d="M23 17.1328L17.2903 23.0086C17.2522 23.048 17.207 23.0792 17.1572 23.1005C17.1074 23.1219 17.0539 23.1328 17 23.1328C16.946 23.1328 16.8926 23.1219 16.8428 23.1005C16.793 23.0792 16.7478 23.048 16.7097 23.0086L11 17.1328" stroke="#666666" stroke-miterlimit="10" stroke-linecap="round"/>
<path d="M17 23.1336L17 9.93359" stroke="#666666" stroke-miterlimit="10" stroke-linecap="round"/>
</svg>
