<svg width="50" height="50" viewBox="0 0 50 50" fill="none" xmlns="http://www.w3.org/2000/svg">
<path d="M25 48.6094C38.2548 48.6094 49 37.8642 49 24.6094C49 11.3545 38.2548 0.609375 25 0.609375C11.7452 0.609375 1 11.3545 1 24.6094C1 37.8642 11.7452 48.6094 25 48.6094Z" stroke="#666666" stroke-miterlimit="10"/>
<path d="M25.3008 15.6094L34.1145 24.174C34.1735 24.231 34.2204 24.2989 34.2524 24.3736C34.2844 24.4483 34.3008 24.5285 34.3008 24.6094C34.3008 24.6903 34.2844 24.7704 34.2524 24.8452C34.2204 24.9199 34.1735 24.9877 34.1145 25.0448L25.3008 33.6094" stroke="#666666" stroke-miterlimit="10" stroke-linecap="round"/>
<path d="M34.3 24.6094L14.5 24.6094" stroke="#666666" stroke-miterlimit="10" stroke-linecap="round"/>
</svg>
