<svg width="179" height="180" viewBox="0 0 179 180" fill="none" xmlns="http://www.w3.org/2000/svg">
<path fill-rule="evenodd" clip-rule="evenodd" d="M2.48611 5.47222C3.85907 5.47222 4.97222 4.35907 4.97222 2.98611C4.97222 1.61316 3.85907 0.5 2.48611 0.5C1.11316 0.5 0 1.61316 0 2.98611C0 4.35907 1.11316 5.47222 2.48611 5.47222ZM27.3472 5.47222C28.7202 5.47222 29.8333 4.35907 29.8333 2.98611C29.8333 1.61316 28.7202 0.5 27.3472 0.5C25.9743 0.5 24.8611 1.61316 24.8611 2.98611C24.8611 4.35907 25.9743 5.47222 27.3472 5.47222ZM54.6944 2.98611C54.6944 4.35907 53.5813 5.47222 52.2083 5.47222C50.8354 5.47222 49.7222 4.35907 49.7222 2.98611C49.7222 1.61316 50.8354 0.5 52.2083 0.5C53.5813 0.5 54.6944 1.61316 54.6944 2.98611ZM77.0694 5.47222C78.4424 5.47222 79.5556 4.35907 79.5556 2.98611C79.5556 1.61316 78.4424 0.5 77.0694 0.5C75.6965 0.5 74.5833 1.61316 74.5833 2.98611C74.5833 4.35907 75.6965 5.47222 77.0694 5.47222ZM104.417 2.98611C104.417 4.35907 103.304 5.47222 101.931 5.47222C100.558 5.47222 99.4445 4.35907 99.4445 2.98611C99.4445 1.61316 100.558 0.5 101.931 0.5C103.304 0.5 104.417 1.61316 104.417 2.98611ZM126.792 5.47222C128.165 5.47222 129.278 4.35907 129.278 2.98611C129.278 1.61316 128.165 0.5 126.792 0.5C125.419 0.5 124.306 1.61316 124.306 2.98611C124.306 4.35907 125.419 5.47222 126.792 5.47222ZM154.139 2.98611C154.139 4.35907 153.026 5.47222 151.653 5.47222C150.28 5.47222 149.167 4.35907 149.167 2.98611C149.167 1.61316 150.28 0.5 151.653 0.5C153.026 0.5 154.139 1.61316 154.139 2.98611ZM176.514 5.47222C177.887 5.47222 179 4.35907 179 2.98611C179 1.61316 177.887 0.5 176.514 0.5C175.141 0.5 174.028 1.61316 174.028 2.98611C174.028 4.35907 175.141 5.47222 176.514 5.47222ZM4.97222 27.8472C4.97222 29.2202 3.85907 30.3333 2.48611 30.3333C1.11316 30.3333 0 29.2202 0 27.8472C0 26.4743 1.11316 25.3611 2.48611 25.3611C3.85907 25.3611 4.97222 26.4743 4.97222 27.8472ZM27.3472 30.3333C28.7202 30.3333 29.8333 29.2202 29.8333 27.8472C29.8333 26.4743 28.7202 25.3611 27.3472 25.3611C25.9743 25.3611 24.8611 26.4743 24.8611 27.8472C24.8611 29.2202 25.9743 30.3333 27.3472 30.3333ZM54.6944 27.8472C54.6944 29.2202 53.5813 30.3333 52.2083 30.3333C50.8354 30.3333 49.7222 29.2202 49.7222 27.8472C49.7222 26.4743 50.8354 25.3611 52.2083 25.3611C53.5813 25.3611 54.6944 26.4743 54.6944 27.8472ZM77.0694 30.3333C78.4424 30.3333 79.5556 29.2202 79.5556 27.8472C79.5556 26.4743 78.4424 25.3611 77.0694 25.3611C75.6965 25.3611 74.5833 26.4743 74.5833 27.8472C74.5833 29.2202 75.6965 30.3333 77.0694 30.3333ZM104.417 27.8472C104.417 29.2202 103.304 30.3333 101.931 30.3333C100.558 30.3333 99.4445 29.2202 99.4445 27.8472C99.4445 26.4743 100.558 25.3611 101.931 25.3611C103.304 25.3611 104.417 26.4743 104.417 27.8472ZM126.792 30.3333C128.165 30.3333 129.278 29.2202 129.278 27.8472C129.278 26.4743 128.165 25.3611 126.792 25.3611C125.419 25.3611 124.306 26.4743 124.306 27.8472C124.306 29.2202 125.419 30.3333 126.792 30.3333ZM154.139 27.8472C154.139 29.2202 153.026 30.3333 151.653 30.3333C150.28 30.3333 149.167 29.2202 149.167 27.8472C149.167 26.4743 150.28 25.3611 151.653 25.3611C153.026 25.3611 154.139 26.4743 154.139 27.8472ZM176.514 30.3333C177.887 30.3333 179 29.2202 179 27.8472C179 26.4743 177.887 25.3611 176.514 25.3611C175.141 25.3611 174.028 26.4743 174.028 27.8472C174.028 29.2202 175.141 30.3333 176.514 30.3333ZM4.97222 52.7083C4.97222 54.0813 3.85907 55.1944 2.48611 55.1944C1.11316 55.1944 0 54.0813 0 52.7083C0 51.3354 1.11316 50.2222 2.48611 50.2222C3.85907 50.2222 4.97222 51.3354 4.97222 52.7083ZM27.3472 55.1944C28.7202 55.1944 29.8333 54.0813 29.8333 52.7083C29.8333 51.3354 28.7202 50.2222 27.3472 50.2222C25.9743 50.2222 24.8611 51.3354 24.8611 52.7083C24.8611 54.0813 25.9743 55.1944 27.3472 55.1944ZM54.6944 52.7083C54.6944 54.0813 53.5813 55.1944 52.2083 55.1944C50.8354 55.1944 49.7222 54.0813 49.7222 52.7083C49.7222 51.3354 50.8354 50.2222 52.2083 50.2222C53.5813 50.2222 54.6944 51.3354 54.6944 52.7083ZM77.0694 55.1944C78.4424 55.1944 79.5556 54.0813 79.5556 52.7083C79.5556 51.3354 78.4424 50.2222 77.0694 50.2222C75.6965 50.2222 74.5833 51.3354 74.5833 52.7083C74.5833 54.0813 75.6965 55.1944 77.0694 55.1944ZM104.417 52.7083C104.417 54.0813 103.304 55.1944 101.931 55.1944C100.558 55.1944 99.4445 54.0813 99.4445 52.7083C99.4445 51.3354 100.558 50.2222 101.931 50.2222C103.304 50.2222 104.417 51.3354 104.417 52.7083ZM126.792 55.1944C128.165 55.1944 129.278 54.0813 129.278 52.7083C129.278 51.3354 128.165 50.2222 126.792 50.2222C125.419 50.2222 124.306 51.3354 124.306 52.7083C124.306 54.0813 125.419 55.1944 126.792 55.1944ZM154.139 52.7083C154.139 54.0813 153.026 55.1944 151.653 55.1944C150.28 55.1944 149.167 54.0813 149.167 52.7083C149.167 51.3354 150.28 50.2222 151.653 50.2222C153.026 50.2222 154.139 51.3354 154.139 52.7083ZM176.514 55.1944C177.887 55.1944 179 54.0813 179 52.7083C179 51.3354 177.887 50.2222 176.514 50.2222C175.141 50.2222 174.028 51.3354 174.028 52.7083C174.028 54.0813 175.141 55.1944 176.514 55.1944ZM4.97222 77.5694C4.97222 78.9424 3.85907 80.0556 2.48611 80.0556C1.11316 80.0556 0 78.9424 0 77.5694C0 76.1965 1.11316 75.0833 2.48611 75.0833C3.85907 75.0833 4.97222 76.1965 4.97222 77.5694ZM27.3472 80.0556C28.7202 80.0556 29.8333 78.9424 29.8333 77.5694C29.8333 76.1965 28.7202 75.0833 27.3472 75.0833C25.9743 75.0833 24.8611 76.1965 24.8611 77.5694C24.8611 78.9424 25.9743 80.0556 27.3472 80.0556ZM54.6944 77.5694C54.6944 78.9424 53.5813 80.0556 52.2083 80.0556C50.8354 80.0556 49.7222 78.9424 49.7222 77.5694C49.7222 76.1965 50.8354 75.0833 52.2083 75.0833C53.5813 75.0833 54.6944 76.1965 54.6944 77.5694ZM77.0694 80.0556C78.4424 80.0556 79.5556 78.9424 79.5556 77.5694C79.5556 76.1965 78.4424 75.0833 77.0694 75.0833C75.6965 75.0833 74.5833 76.1965 74.5833 77.5694C74.5833 78.9424 75.6965 80.0556 77.0694 80.0556ZM104.417 77.5694C104.417 78.9424 103.304 80.0556 101.931 80.0556C100.558 80.0556 99.4445 78.9424 99.4445 77.5694C99.4445 76.1965 100.558 75.0833 101.931 75.0833C103.304 75.0833 104.417 76.1965 104.417 77.5694ZM126.792 80.0556C128.165 80.0556 129.278 78.9424 129.278 77.5694C129.278 76.1965 128.165 75.0833 126.792 75.0833C125.419 75.0833 124.306 76.1965 124.306 77.5694C124.306 78.9424 125.419 80.0556 126.792 80.0556ZM154.139 77.5694C154.139 78.9424 153.026 80.0556 151.653 80.0556C150.28 80.0556 149.167 78.9424 149.167 77.5694C149.167 76.1965 150.28 75.0833 151.653 75.0833C153.026 75.0833 154.139 76.1965 154.139 77.5694ZM176.514 80.0556C177.887 80.0556 179 78.9424 179 77.5694C179 76.1965 177.887 75.0833 176.514 75.0833C175.141 75.0833 174.028 76.1965 174.028 77.5694C174.028 78.9424 175.141 80.0556 176.514 80.0556ZM4.97222 102.431C4.97222 103.804 3.85907 104.917 2.48611 104.917C1.11316 104.917 0 103.804 0 102.431C0 101.058 1.11316 99.9445 2.48611 99.9445C3.85907 99.9445 4.97222 101.058 4.97222 102.431ZM27.3472 104.917C28.7202 104.917 29.8333 103.804 29.8333 102.431C29.8333 101.058 28.7202 99.9445 27.3472 99.9445C25.9743 99.9445 24.8611 101.058 24.8611 102.431C24.8611 103.804 25.9743 104.917 27.3472 104.917ZM54.6944 102.431C54.6944 103.804 53.5813 104.917 52.2083 104.917C50.8354 104.917 49.7222 103.804 49.7222 102.431C49.7222 101.058 50.8354 99.9445 52.2083 99.9445C53.5813 99.9445 54.6944 101.058 54.6944 102.431ZM77.0694 104.917C78.4424 104.917 79.5556 103.804 79.5556 102.431C79.5556 101.058 78.4424 99.9445 77.0694 99.9445C75.6965 99.9445 74.5833 101.058 74.5833 102.431C74.5833 103.804 75.6965 104.917 77.0694 104.917ZM104.417 102.431C104.417 103.804 103.304 104.917 101.931 104.917C100.558 104.917 99.4445 103.804 99.4445 102.431C99.4445 101.058 100.558 99.9445 101.931 99.9445C103.304 99.9445 104.417 101.058 104.417 102.431ZM126.792 104.917C128.165 104.917 129.278 103.804 129.278 102.431C129.278 101.058 128.165 99.9445 126.792 99.9445C125.419 99.9445 124.306 101.058 124.306 102.431C124.306 103.804 125.419 104.917 126.792 104.917ZM154.139 102.431C154.139 103.804 153.026 104.917 151.653 104.917C150.28 104.917 149.167 103.804 149.167 102.431C149.167 101.058 150.28 99.9445 151.653 99.9445C153.026 99.9445 154.139 101.058 154.139 102.431ZM176.514 104.917C177.887 104.917 179 103.804 179 102.431C179 101.058 177.887 99.9445 176.514 99.9445C175.141 99.9445 174.028 101.058 174.028 102.431C174.028 103.804 175.141 104.917 176.514 104.917ZM4.97222 127.292C4.97222 128.665 3.85907 129.778 2.48611 129.778C1.11316 129.778 0 128.665 0 127.292C0 125.919 1.11316 124.806 2.48611 124.806C3.85907 124.806 4.97222 125.919 4.97222 127.292ZM27.3472 129.778C28.7202 129.778 29.8333 128.665 29.8333 127.292C29.8333 125.919 28.7202 124.806 27.3472 124.806C25.9743 124.806 24.8611 125.919 24.8611 127.292C24.8611 128.665 25.9743 129.778 27.3472 129.778ZM54.6944 127.292C54.6944 128.665 53.5813 129.778 52.2083 129.778C50.8354 129.778 49.7222 128.665 49.7222 127.292C49.7222 125.919 50.8354 124.806 52.2083 124.806C53.5813 124.806 54.6944 125.919 54.6944 127.292ZM77.0694 129.778C78.4424 129.778 79.5556 128.665 79.5556 127.292C79.5556 125.919 78.4424 124.806 77.0694 124.806C75.6965 124.806 74.5833 125.919 74.5833 127.292C74.5833 128.665 75.6965 129.778 77.0694 129.778ZM104.417 127.292C104.417 128.665 103.304 129.778 101.931 129.778C100.558 129.778 99.4445 128.665 99.4445 127.292C99.4445 125.919 100.558 124.806 101.931 124.806C103.304 124.806 104.417 125.919 104.417 127.292ZM126.792 129.778C128.165 129.778 129.278 128.665 129.278 127.292C129.278 125.919 128.165 124.806 126.792 124.806C125.419 124.806 124.306 125.919 124.306 127.292C124.306 128.665 125.419 129.778 126.792 129.778ZM154.139 127.292C154.139 128.665 153.026 129.778 151.653 129.778C150.28 129.778 149.167 128.665 149.167 127.292C149.167 125.919 150.28 124.806 151.653 124.806C153.026 124.806 154.139 125.919 154.139 127.292ZM176.514 129.778C177.887 129.778 179 128.665 179 127.292C179 125.919 177.887 124.806 176.514 124.806C175.141 124.806 174.028 125.919 174.028 127.292C174.028 128.665 175.141 129.778 176.514 129.778ZM4.97222 152.153C4.97222 153.526 3.85907 154.639 2.48611 154.639C1.11316 154.639 0 153.526 0 152.153C0 150.78 1.11316 149.667 2.48611 149.667C3.85907 149.667 4.97222 150.78 4.97222 152.153ZM27.3472 154.639C28.7202 154.639 29.8333 153.526 29.8333 152.153C29.8333 150.78 28.7202 149.667 27.3472 149.667C25.9743 149.667 24.8611 150.78 24.8611 152.153C24.8611 153.526 25.9743 154.639 27.3472 154.639ZM54.6944 152.153C54.6944 153.526 53.5813 154.639 52.2083 154.639C50.8354 154.639 49.7222 153.526 49.7222 152.153C49.7222 150.78 50.8354 149.667 52.2083 149.667C53.5813 149.667 54.6944 150.78 54.6944 152.153ZM77.0694 154.639C78.4424 154.639 79.5556 153.526 79.5556 152.153C79.5556 150.78 78.4424 149.667 77.0694 149.667C75.6965 149.667 74.5833 150.78 74.5833 152.153C74.5833 153.526 75.6965 154.639 77.0694 154.639ZM104.417 152.153C104.417 153.526 103.304 154.639 101.931 154.639C100.558 154.639 99.4445 153.526 99.4445 152.153C99.4445 150.78 100.558 149.667 101.931 149.667C103.304 149.667 104.417 150.78 104.417 152.153ZM126.792 154.639C128.165 154.639 129.278 153.526 129.278 152.153C129.278 150.78 128.165 149.667 126.792 149.667C125.419 149.667 124.306 150.78 124.306 152.153C124.306 153.526 125.419 154.639 126.792 154.639ZM154.139 152.153C154.139 153.526 153.026 154.639 151.653 154.639C150.28 154.639 149.167 153.526 149.167 152.153C149.167 150.78 150.28 149.667 151.653 149.667C153.026 149.667 154.139 150.78 154.139 152.153ZM176.514 154.639C177.887 154.639 179 153.526 179 152.153C179 150.78 177.887 149.667 176.514 149.667C175.141 149.667 174.028 150.78 174.028 152.153C174.028 153.526 175.141 154.639 176.514 154.639ZM4.97222 177.014C4.97222 178.387 3.85907 179.5 2.48611 179.5C1.11316 179.5 0 178.387 0 177.014C0 175.641 1.11316 174.528 2.48611 174.528C3.85907 174.528 4.97222 175.641 4.97222 177.014ZM27.3472 179.5C28.7202 179.5 29.8333 178.387 29.8333 177.014C29.8333 175.641 28.7202 174.528 27.3472 174.528C25.9743 174.528 24.8611 175.641 24.8611 177.014C24.8611 178.387 25.9743 179.5 27.3472 179.5ZM54.6944 177.014C54.6944 178.387 53.5813 179.5 52.2083 179.5C50.8354 179.5 49.7222 178.387 49.7222 177.014C49.7222 175.641 50.8354 174.528 52.2083 174.528C53.5813 174.528 54.6944 175.641 54.6944 177.014ZM77.0694 179.5C78.4424 179.5 79.5556 178.387 79.5556 177.014C79.5556 175.641 78.4424 174.528 77.0694 174.528C75.6965 174.528 74.5833 175.641 74.5833 177.014C74.5833 178.387 75.6965 179.5 77.0694 179.5ZM104.417 177.014C104.417 178.387 103.304 179.5 101.931 179.5C100.558 179.5 99.4445 178.387 99.4445 177.014C99.4445 175.641 100.558 174.528 101.931 174.528C103.304 174.528 104.417 175.641 104.417 177.014ZM126.792 179.5C128.165 179.5 129.278 178.387 129.278 177.014C129.278 175.641 128.165 174.528 126.792 174.528C125.419 174.528 124.306 175.641 124.306 177.014C124.306 178.387 125.419 179.5 126.792 179.5ZM154.139 177.014C154.139 178.387 153.026 179.5 151.653 179.5C150.28 179.5 149.167 178.387 149.167 177.014C149.167 175.641 150.28 174.528 151.653 174.528C153.026 174.528 154.139 175.641 154.139 177.014ZM176.514 179.5C177.887 179.5 179 178.387 179 177.014C179 175.641 177.887 174.528 176.514 174.528C175.141 174.528 174.028 175.641 174.028 177.014C174.028 178.387 175.141 179.5 176.514 179.5Z" fill="#1F7AD3"/>
<mask id="mask0_736_8257" style="mask-type:alpha" maskUnits="userSpaceOnUse" x="0" y="0" width="179" height="180">
<path fill-rule="evenodd" clip-rule="evenodd" d="M2.48611 5.47222C3.85907 5.47222 4.97222 4.35907 4.97222 2.98611C4.97222 1.61316 3.85907 0.5 2.48611 0.5C1.11316 0.5 0 1.61316 0 2.98611C0 4.35907 1.11316 5.47222 2.48611 5.47222ZM27.3472 5.47222C28.7202 5.47222 29.8333 4.35907 29.8333 2.98611C29.8333 1.61316 28.7202 0.5 27.3472 0.5C25.9743 0.5 24.8611 1.61316 24.8611 2.98611C24.8611 4.35907 25.9743 5.47222 27.3472 5.47222ZM54.6944 2.98611C54.6944 4.35907 53.5813 5.47222 52.2083 5.47222C50.8354 5.47222 49.7222 4.35907 49.7222 2.98611C49.7222 1.61316 50.8354 0.5 52.2083 0.5C53.5813 0.5 54.6944 1.61316 54.6944 2.98611ZM77.0694 5.47222C78.4424 5.47222 79.5556 4.35907 79.5556 2.98611C79.5556 1.61316 78.4424 0.5 77.0694 0.5C75.6965 0.5 74.5833 1.61316 74.5833 2.98611C74.5833 4.35907 75.6965 5.47222 77.0694 5.47222ZM104.417 2.98611C104.417 4.35907 103.304 5.47222 101.931 5.47222C100.558 5.47222 99.4445 4.35907 99.4445 2.98611C99.4445 1.61316 100.558 0.5 101.931 0.5C103.304 0.5 104.417 1.61316 104.417 2.98611ZM126.792 5.47222C128.165 5.47222 129.278 4.35907 129.278 2.98611C129.278 1.61316 128.165 0.5 126.792 0.5C125.419 0.5 124.306 1.61316 124.306 2.98611C124.306 4.35907 125.419 5.47222 126.792 5.47222ZM154.139 2.98611C154.139 4.35907 153.026 5.47222 151.653 5.47222C150.28 5.47222 149.167 4.35907 149.167 2.98611C149.167 1.61316 150.28 0.5 151.653 0.5C153.026 0.5 154.139 1.61316 154.139 2.98611ZM176.514 5.47222C177.887 5.47222 179 4.35907 179 2.98611C179 1.61316 177.887 0.5 176.514 0.5C175.141 0.5 174.028 1.61316 174.028 2.98611C174.028 4.35907 175.141 5.47222 176.514 5.47222ZM4.97222 27.8472C4.97222 29.2202 3.85907 30.3333 2.48611 30.3333C1.11316 30.3333 0 29.2202 0 27.8472C0 26.4743 1.11316 25.3611 2.48611 25.3611C3.85907 25.3611 4.97222 26.4743 4.97222 27.8472ZM27.3472 30.3333C28.7202 30.3333 29.8333 29.2202 29.8333 27.8472C29.8333 26.4743 28.7202 25.3611 27.3472 25.3611C25.9743 25.3611 24.8611 26.4743 24.8611 27.8472C24.8611 29.2202 25.9743 30.3333 27.3472 30.3333ZM54.6944 27.8472C54.6944 29.2202 53.5813 30.3333 52.2083 30.3333C50.8354 30.3333 49.7222 29.2202 49.7222 27.8472C49.7222 26.4743 50.8354 25.3611 52.2083 25.3611C53.5813 25.3611 54.6944 26.4743 54.6944 27.8472ZM77.0694 30.3333C78.4424 30.3333 79.5556 29.2202 79.5556 27.8472C79.5556 26.4743 78.4424 25.3611 77.0694 25.3611C75.6965 25.3611 74.5833 26.4743 74.5833 27.8472C74.5833 29.2202 75.6965 30.3333 77.0694 30.3333ZM104.417 27.8472C104.417 29.2202 103.304 30.3333 101.931 30.3333C100.558 30.3333 99.4445 29.2202 99.4445 27.8472C99.4445 26.4743 100.558 25.3611 101.931 25.3611C103.304 25.3611 104.417 26.4743 104.417 27.8472ZM126.792 30.3333C128.165 30.3333 129.278 29.2202 129.278 27.8472C129.278 26.4743 128.165 25.3611 126.792 25.3611C125.419 25.3611 124.306 26.4743 124.306 27.8472C124.306 29.2202 125.419 30.3333 126.792 30.3333ZM154.139 27.8472C154.139 29.2202 153.026 30.3333 151.653 30.3333C150.28 30.3333 149.167 29.2202 149.167 27.8472C149.167 26.4743 150.28 25.3611 151.653 25.3611C153.026 25.3611 154.139 26.4743 154.139 27.8472ZM176.514 30.3333C177.887 30.3333 179 29.2202 179 27.8472C179 26.4743 177.887 25.3611 176.514 25.3611C175.141 25.3611 174.028 26.4743 174.028 27.8472C174.028 29.2202 175.141 30.3333 176.514 30.3333ZM4.97222 52.7083C4.97222 54.0813 3.85907 55.1944 2.48611 55.1944C1.11316 55.1944 0 54.0813 0 52.7083C0 51.3354 1.11316 50.2222 2.48611 50.2222C3.85907 50.2222 4.97222 51.3354 4.97222 52.7083ZM27.3472 55.1944C28.7202 55.1944 29.8333 54.0813 29.8333 52.7083C29.8333 51.3354 28.7202 50.2222 27.3472 50.2222C25.9743 50.2222 24.8611 51.3354 24.8611 52.7083C24.8611 54.0813 25.9743 55.1944 27.3472 55.1944ZM54.6944 52.7083C54.6944 54.0813 53.5813 55.1944 52.2083 55.1944C50.8354 55.1944 49.7222 54.0813 49.7222 52.7083C49.7222 51.3354 50.8354 50.2222 52.2083 50.2222C53.5813 50.2222 54.6944 51.3354 54.6944 52.7083ZM77.0694 55.1944C78.4424 55.1944 79.5556 54.0813 79.5556 52.7083C79.5556 51.3354 78.4424 50.2222 77.0694 50.2222C75.6965 50.2222 74.5833 51.3354 74.5833 52.7083C74.5833 54.0813 75.6965 55.1944 77.0694 55.1944ZM104.417 52.7083C104.417 54.0813 103.304 55.1944 101.931 55.1944C100.558 55.1944 99.4445 54.0813 99.4445 52.7083C99.4445 51.3354 100.558 50.2222 101.931 50.2222C103.304 50.2222 104.417 51.3354 104.417 52.7083ZM126.792 55.1944C128.165 55.1944 129.278 54.0813 129.278 52.7083C129.278 51.3354 128.165 50.2222 126.792 50.2222C125.419 50.2222 124.306 51.3354 124.306 52.7083C124.306 54.0813 125.419 55.1944 126.792 55.1944ZM154.139 52.7083C154.139 54.0813 153.026 55.1944 151.653 55.1944C150.28 55.1944 149.167 54.0813 149.167 52.7083C149.167 51.3354 150.28 50.2222 151.653 50.2222C153.026 50.2222 154.139 51.3354 154.139 52.7083ZM176.514 55.1944C177.887 55.1944 179 54.0813 179 52.7083C179 51.3354 177.887 50.2222 176.514 50.2222C175.141 50.2222 174.028 51.3354 174.028 52.7083C174.028 54.0813 175.141 55.1944 176.514 55.1944ZM4.97222 77.5694C4.97222 78.9424 3.85907 80.0556 2.48611 80.0556C1.11316 80.0556 0 78.9424 0 77.5694C0 76.1965 1.11316 75.0833 2.48611 75.0833C3.85907 75.0833 4.97222 76.1965 4.97222 77.5694ZM27.3472 80.0556C28.7202 80.0556 29.8333 78.9424 29.8333 77.5694C29.8333 76.1965 28.7202 75.0833 27.3472 75.0833C25.9743 75.0833 24.8611 76.1965 24.8611 77.5694C24.8611 78.9424 25.9743 80.0556 27.3472 80.0556ZM54.6944 77.5694C54.6944 78.9424 53.5813 80.0556 52.2083 80.0556C50.8354 80.0556 49.7222 78.9424 49.7222 77.5694C49.7222 76.1965 50.8354 75.0833 52.2083 75.0833C53.5813 75.0833 54.6944 76.1965 54.6944 77.5694ZM77.0694 80.0556C78.4424 80.0556 79.5556 78.9424 79.5556 77.5694C79.5556 76.1965 78.4424 75.0833 77.0694 75.0833C75.6965 75.0833 74.5833 76.1965 74.5833 77.5694C74.5833 78.9424 75.6965 80.0556 77.0694 80.0556ZM104.417 77.5694C104.417 78.9424 103.304 80.0556 101.931 80.0556C100.558 80.0556 99.4445 78.9424 99.4445 77.5694C99.4445 76.1965 100.558 75.0833 101.931 75.0833C103.304 75.0833 104.417 76.1965 104.417 77.5694ZM126.792 80.0556C128.165 80.0556 129.278 78.9424 129.278 77.5694C129.278 76.1965 128.165 75.0833 126.792 75.0833C125.419 75.0833 124.306 76.1965 124.306 77.5694C124.306 78.9424 125.419 80.0556 126.792 80.0556ZM154.139 77.5694C154.139 78.9424 153.026 80.0556 151.653 80.0556C150.28 80.0556 149.167 78.9424 149.167 77.5694C149.167 76.1965 150.28 75.0833 151.653 75.0833C153.026 75.0833 154.139 76.1965 154.139 77.5694ZM176.514 80.0556C177.887 80.0556 179 78.9424 179 77.5694C179 76.1965 177.887 75.0833 176.514 75.0833C175.141 75.0833 174.028 76.1965 174.028 77.5694C174.028 78.9424 175.141 80.0556 176.514 80.0556ZM4.97222 102.431C4.97222 103.804 3.85907 104.917 2.48611 104.917C1.11316 104.917 0 103.804 0 102.431C0 101.058 1.11316 99.9445 2.48611 99.9445C3.85907 99.9445 4.97222 101.058 4.97222 102.431ZM27.3472 104.917C28.7202 104.917 29.8333 103.804 29.8333 102.431C29.8333 101.058 28.7202 99.9445 27.3472 99.9445C25.9743 99.9445 24.8611 101.058 24.8611 102.431C24.8611 103.804 25.9743 104.917 27.3472 104.917ZM54.6944 102.431C54.6944 103.804 53.5813 104.917 52.2083 104.917C50.8354 104.917 49.7222 103.804 49.7222 102.431C49.7222 101.058 50.8354 99.9445 52.2083 99.9445C53.5813 99.9445 54.6944 101.058 54.6944 102.431ZM77.0694 104.917C78.4424 104.917 79.5556 103.804 79.5556 102.431C79.5556 101.058 78.4424 99.9445 77.0694 99.9445C75.6965 99.9445 74.5833 101.058 74.5833 102.431C74.5833 103.804 75.6965 104.917 77.0694 104.917ZM104.417 102.431C104.417 103.804 103.304 104.917 101.931 104.917C100.558 104.917 99.4445 103.804 99.4445 102.431C99.4445 101.058 100.558 99.9445 101.931 99.9445C103.304 99.9445 104.417 101.058 104.417 102.431ZM126.792 104.917C128.165 104.917 129.278 103.804 129.278 102.431C129.278 101.058 128.165 99.9445 126.792 99.9445C125.419 99.9445 124.306 101.058 124.306 102.431C124.306 103.804 125.419 104.917 126.792 104.917ZM154.139 102.431C154.139 103.804 153.026 104.917 151.653 104.917C150.28 104.917 149.167 103.804 149.167 102.431C149.167 101.058 150.28 99.9445 151.653 99.9445C153.026 99.9445 154.139 101.058 154.139 102.431ZM176.514 104.917C177.887 104.917 179 103.804 179 102.431C179 101.058 177.887 99.9445 176.514 99.9445C175.141 99.9445 174.028 101.058 174.028 102.431C174.028 103.804 175.141 104.917 176.514 104.917ZM4.97222 127.292C4.97222 128.665 3.85907 129.778 2.48611 129.778C1.11316 129.778 0 128.665 0 127.292C0 125.919 1.11316 124.806 2.48611 124.806C3.85907 124.806 4.97222 125.919 4.97222 127.292ZM27.3472 129.778C28.7202 129.778 29.8333 128.665 29.8333 127.292C29.8333 125.919 28.7202 124.806 27.3472 124.806C25.9743 124.806 24.8611 125.919 24.8611 127.292C24.8611 128.665 25.9743 129.778 27.3472 129.778ZM54.6944 127.292C54.6944 128.665 53.5813 129.778 52.2083 129.778C50.8354 129.778 49.7222 128.665 49.7222 127.292C49.7222 125.919 50.8354 124.806 52.2083 124.806C53.5813 124.806 54.6944 125.919 54.6944 127.292ZM77.0694 129.778C78.4424 129.778 79.5556 128.665 79.5556 127.292C79.5556 125.919 78.4424 124.806 77.0694 124.806C75.6965 124.806 74.5833 125.919 74.5833 127.292C74.5833 128.665 75.6965 129.778 77.0694 129.778ZM104.417 127.292C104.417 128.665 103.304 129.778 101.931 129.778C100.558 129.778 99.4445 128.665 99.4445 127.292C99.4445 125.919 100.558 124.806 101.931 124.806C103.304 124.806 104.417 125.919 104.417 127.292ZM126.792 129.778C128.165 129.778 129.278 128.665 129.278 127.292C129.278 125.919 128.165 124.806 126.792 124.806C125.419 124.806 124.306 125.919 124.306 127.292C124.306 128.665 125.419 129.778 126.792 129.778ZM154.139 127.292C154.139 128.665 153.026 129.778 151.653 129.778C150.28 129.778 149.167 128.665 149.167 127.292C149.167 125.919 150.28 124.806 151.653 124.806C153.026 124.806 154.139 125.919 154.139 127.292ZM176.514 129.778C177.887 129.778 179 128.665 179 127.292C179 125.919 177.887 124.806 176.514 124.806C175.141 124.806 174.028 125.919 174.028 127.292C174.028 128.665 175.141 129.778 176.514 129.778ZM4.97222 152.153C4.97222 153.526 3.85907 154.639 2.48611 154.639C1.11316 154.639 0 153.526 0 152.153C0 150.78 1.11316 149.667 2.48611 149.667C3.85907 149.667 4.97222 150.78 4.97222 152.153ZM27.3472 154.639C28.7202 154.639 29.8333 153.526 29.8333 152.153C29.8333 150.78 28.7202 149.667 27.3472 149.667C25.9743 149.667 24.8611 150.78 24.8611 152.153C24.8611 153.526 25.9743 154.639 27.3472 154.639ZM54.6944 152.153C54.6944 153.526 53.5813 154.639 52.2083 154.639C50.8354 154.639 49.7222 153.526 49.7222 152.153C49.7222 150.78 50.8354 149.667 52.2083 149.667C53.5813 149.667 54.6944 150.78 54.6944 152.153ZM77.0694 154.639C78.4424 154.639 79.5556 153.526 79.5556 152.153C79.5556 150.78 78.4424 149.667 77.0694 149.667C75.6965 149.667 74.5833 150.78 74.5833 152.153C74.5833 153.526 75.6965 154.639 77.0694 154.639ZM104.417 152.153C104.417 153.526 103.304 154.639 101.931 154.639C100.558 154.639 99.4445 153.526 99.4445 152.153C99.4445 150.78 100.558 149.667 101.931 149.667C103.304 149.667 104.417 150.78 104.417 152.153ZM126.792 154.639C128.165 154.639 129.278 153.526 129.278 152.153C129.278 150.78 128.165 149.667 126.792 149.667C125.419 149.667 124.306 150.78 124.306 152.153C124.306 153.526 125.419 154.639 126.792 154.639ZM154.139 152.153C154.139 153.526 153.026 154.639 151.653 154.639C150.28 154.639 149.167 153.526 149.167 152.153C149.167 150.78 150.28 149.667 151.653 149.667C153.026 149.667 154.139 150.78 154.139 152.153ZM176.514 154.639C177.887 154.639 179 153.526 179 152.153C179 150.78 177.887 149.667 176.514 149.667C175.141 149.667 174.028 150.78 174.028 152.153C174.028 153.526 175.141 154.639 176.514 154.639ZM4.97222 177.014C4.97222 178.387 3.85907 179.5 2.48611 179.5C1.11316 179.5 0 178.387 0 177.014C0 175.641 1.11316 174.528 2.48611 174.528C3.85907 174.528 4.97222 175.641 4.97222 177.014ZM27.3472 179.5C28.7202 179.5 29.8333 178.387 29.8333 177.014C29.8333 175.641 28.7202 174.528 27.3472 174.528C25.9743 174.528 24.8611 175.641 24.8611 177.014C24.8611 178.387 25.9743 179.5 27.3472 179.5ZM54.6944 177.014C54.6944 178.387 53.5813 179.5 52.2083 179.5C50.8354 179.5 49.7222 178.387 49.7222 177.014C49.7222 175.641 50.8354 174.528 52.2083 174.528C53.5813 174.528 54.6944 175.641 54.6944 177.014ZM77.0694 179.5C78.4424 179.5 79.5556 178.387 79.5556 177.014C79.5556 175.641 78.4424 174.528 77.0694 174.528C75.6965 174.528 74.5833 175.641 74.5833 177.014C74.5833 178.387 75.6965 179.5 77.0694 179.5ZM104.417 177.014C104.417 178.387 103.304 179.5 101.931 179.5C100.558 179.5 99.4445 178.387 99.4445 177.014C99.4445 175.641 100.558 174.528 101.931 174.528C103.304 174.528 104.417 175.641 104.417 177.014ZM126.792 179.5C128.165 179.5 129.278 178.387 129.278 177.014C129.278 175.641 128.165 174.528 126.792 174.528C125.419 174.528 124.306 175.641 124.306 177.014C124.306 178.387 125.419 179.5 126.792 179.5ZM154.139 177.014C154.139 178.387 153.026 179.5 151.653 179.5C150.28 179.5 149.167 178.387 149.167 177.014C149.167 175.641 150.28 174.528 151.653 174.528C153.026 174.528 154.139 175.641 154.139 177.014ZM176.514 179.5C177.887 179.5 179 178.387 179 177.014C179 175.641 177.887 174.528 176.514 174.528C175.141 174.528 174.028 175.641 174.028 177.014C174.028 178.387 175.141 179.5 176.514 179.5Z" fill="white"/>
</mask>
<g mask="url(#mask0_736_8257)">
<rect y="0.5" width="179" height="179" fill="#1F7AD3"/>
</g>
</svg>
