<svg width="254" height="254" viewBox="0 0 254 254" fill="none" xmlns="http://www.w3.org/2000/svg">
<mask id="mask0_375_9103" style="mask-type:alpha" maskUnits="userSpaceOnUse" x="0" y="0" width="254" height="254">
<circle cx="127" cy="127" r="127" fill="#D9D9D9"/>
</mask>
<g mask="url(#mask0_375_9103)">
<path fill-rule="evenodd" clip-rule="evenodd" d="M138.59 3.42978C139.537 3.42978 140.305 2.66194 140.305 1.71489C140.305 0.767843 139.537 0 138.59 0C137.643 0 136.875 0.767843 136.875 1.71489C136.875 2.66194 137.643 3.42978 138.59 3.42978ZM155.738 3.42978C156.685 3.42978 157.453 2.66194 157.453 1.71489C157.453 0.767843 156.685 0 155.738 0C154.791 0 154.023 0.767843 154.023 1.71489C154.023 2.66194 154.791 3.42978 155.738 3.42978ZM174.606 1.71489C174.606 2.66194 173.838 3.42978 172.891 3.42978C171.944 3.42978 171.176 2.66194 171.176 1.71489C171.176 0.767843 171.944 0 172.891 0C173.838 0 174.606 0.767843 174.606 1.71489ZM190.035 3.42978C190.982 3.42978 191.75 2.66194 191.75 1.71489C191.75 0.767843 190.982 0 190.035 0C189.088 0 188.32 0.767843 188.32 1.71489C188.32 2.66194 189.088 3.42978 190.035 3.42978ZM208.899 1.71489C208.899 2.66194 208.131 3.42978 207.184 3.42978C206.237 3.42978 205.469 2.66194 205.469 1.71489C205.469 0.767843 206.237 0 207.184 0C208.131 0 208.899 0.767843 208.899 1.71489ZM224.336 3.42978C225.283 3.42978 226.051 2.66194 226.051 1.71489C226.051 0.767843 225.283 0 224.336 0C223.389 0 222.621 0.767843 222.621 1.71489C222.621 2.66194 223.389 3.42978 224.336 3.42978ZM243.199 1.71489C243.199 2.66194 242.431 3.42978 241.484 3.42978C240.537 3.42978 239.77 2.66194 239.77 1.71489C239.77 0.767843 240.537 0 241.484 0C242.431 0 243.199 0.767843 243.199 1.71489ZM258.637 3.42978C259.584 3.42978 260.352 2.66194 260.352 1.71489C260.352 0.767843 259.584 0 258.637 0C257.69 0 256.922 0.767843 256.922 1.71489C256.922 2.66194 257.69 3.42978 258.637 3.42978ZM140.305 18.8594C140.305 19.8065 139.537 20.5743 138.59 20.5743C137.643 20.5743 136.875 19.8065 136.875 18.8594C136.875 17.9124 137.643 17.1445 138.59 17.1445C139.537 17.1445 140.305 17.9124 140.305 18.8594ZM155.738 20.5782C156.685 20.5782 157.453 19.8104 157.453 18.8633C157.453 17.9163 156.685 17.1484 155.738 17.1484C154.791 17.1484 154.023 17.9163 154.023 18.8633C154.023 19.8104 154.791 20.5782 155.738 20.5782ZM174.606 18.8633C174.606 19.8104 173.838 20.5782 172.891 20.5782C171.944 20.5782 171.176 19.8104 171.176 18.8633C171.176 17.9163 171.944 17.1484 172.891 17.1484C173.838 17.1484 174.606 17.9163 174.606 18.8633ZM190.035 20.5782C190.982 20.5782 191.75 19.8104 191.75 18.8633C191.75 17.9163 190.982 17.1484 190.035 17.1484C189.088 17.1484 188.32 17.9163 188.32 18.8633C188.32 19.8104 189.088 20.5782 190.035 20.5782ZM208.899 18.8594C208.899 19.8065 208.131 20.5743 207.184 20.5743C206.237 20.5743 205.469 19.8065 205.469 18.8594C205.469 17.9124 206.237 17.1445 207.184 17.1445C208.131 17.1445 208.899 17.9124 208.899 18.8594ZM224.336 20.5782C225.283 20.5782 226.051 19.8104 226.051 18.8633C226.051 17.9163 225.283 17.1484 224.336 17.1484C223.389 17.1484 222.621 17.9163 222.621 18.8633C222.621 19.8104 223.389 20.5782 224.336 20.5782ZM243.199 18.8633C243.199 19.8104 242.431 20.5782 241.484 20.5782C240.537 20.5782 239.77 19.8104 239.77 18.8633C239.77 17.9163 240.537 17.1484 241.484 17.1484C242.431 17.1484 243.199 17.9163 243.199 18.8633ZM258.637 20.5782C259.584 20.5782 260.352 19.8104 260.352 18.8633C260.352 17.9163 259.584 17.1484 258.637 17.1484C257.69 17.1484 256.922 17.9163 256.922 18.8633C256.922 19.8104 257.69 20.5782 258.637 20.5782ZM140.305 36.0157C140.305 36.9627 139.537 37.7306 138.59 37.7306C137.643 37.7306 136.875 36.9627 136.875 36.0157C136.875 35.0686 137.643 34.3008 138.59 34.3008C139.537 34.3008 140.305 35.0686 140.305 36.0157ZM155.738 37.7306C156.685 37.7306 157.453 36.9627 157.453 36.0157C157.453 35.0686 156.685 34.3008 155.738 34.3008C154.791 34.3008 154.023 35.0686 154.023 36.0157C154.023 36.9627 154.791 37.7306 155.738 37.7306ZM174.606 36.0157C174.606 36.9627 173.838 37.7306 172.891 37.7306C171.944 37.7306 171.176 36.9627 171.176 36.0157C171.176 35.0686 171.944 34.3008 172.891 34.3008C173.838 34.3008 174.606 35.0686 174.606 36.0157ZM190.035 37.7306C190.982 37.7306 191.75 36.9627 191.75 36.0157C191.75 35.0686 190.982 34.3008 190.035 34.3008C189.088 34.3008 188.32 35.0686 188.32 36.0157C188.32 36.9627 189.088 37.7306 190.035 37.7306ZM208.899 36.0157C208.899 36.9627 208.131 37.7306 207.184 37.7306C206.237 37.7306 205.469 36.9627 205.469 36.0157C205.469 35.0686 206.237 34.3008 207.184 34.3008C208.131 34.3008 208.899 35.0686 208.899 36.0157ZM224.336 37.7306C225.283 37.7306 226.051 36.9627 226.051 36.0157C226.051 35.0686 225.283 34.3008 224.336 34.3008C223.389 34.3008 222.621 35.0686 222.621 36.0157C222.621 36.9627 223.389 37.7306 224.336 37.7306ZM243.199 36.0157C243.199 36.9627 242.431 37.7306 241.484 37.7306C240.537 37.7306 239.77 36.9627 239.77 36.0157C239.77 35.0686 240.537 34.3008 241.484 34.3008C242.431 34.3008 243.199 35.0686 243.199 36.0157ZM258.637 37.7306C259.584 37.7306 260.352 36.9627 260.352 36.0157C260.352 35.0686 259.584 34.3008 258.637 34.3008C257.69 34.3008 256.922 35.0686 256.922 36.0157C256.922 36.9627 257.69 37.7306 258.637 37.7306ZM140.305 53.1603C140.305 54.1073 139.537 54.8752 138.59 54.8752C137.643 54.8752 136.875 54.1073 136.875 53.1603C136.875 52.2132 137.643 51.4454 138.59 51.4454C139.537 51.4454 140.305 52.2132 140.305 53.1603ZM155.738 54.8751C156.685 54.8751 157.453 54.1073 157.453 53.1602C157.453 52.2132 156.685 51.4453 155.738 51.4453C154.791 51.4453 154.023 52.2132 154.023 53.1602C154.023 54.1073 154.791 54.8751 155.738 54.8751ZM174.606 53.1602C174.606 54.1073 173.838 54.8751 172.891 54.8751C171.944 54.8751 171.176 54.1073 171.176 53.1602C171.176 52.2132 171.944 51.4453 172.891 51.4453C173.838 51.4453 174.606 52.2132 174.606 53.1602ZM190.035 54.8752C190.982 54.8752 191.75 54.1073 191.75 53.1603C191.75 52.2132 190.982 51.4454 190.035 51.4454C189.088 51.4454 188.32 52.2132 188.32 53.1603C188.32 54.1073 189.088 54.8752 190.035 54.8752ZM208.899 53.1602C208.899 54.1073 208.131 54.8751 207.184 54.8751C206.237 54.8751 205.469 54.1073 205.469 53.1602C205.469 52.2132 206.237 51.4453 207.184 51.4453C208.131 51.4453 208.899 52.2132 208.899 53.1602ZM224.336 54.8751C225.283 54.8751 226.051 54.1073 226.051 53.1602C226.051 52.2132 225.283 51.4453 224.336 51.4453C223.389 51.4453 222.621 52.2132 222.621 53.1602C222.621 54.1073 223.389 54.8751 224.336 54.8751ZM243.199 53.1602C243.199 54.1073 242.431 54.8751 241.484 54.8751C240.537 54.8751 239.77 54.1073 239.77 53.1602C239.77 52.2132 240.537 51.4453 241.484 51.4453C242.431 51.4453 243.199 52.2132 243.199 53.1602ZM258.637 54.8751C259.584 54.8751 260.352 54.1073 260.352 53.1602C260.352 52.2132 259.584 51.4453 258.637 51.4453C257.69 51.4453 256.922 52.2132 256.922 53.1602C256.922 54.1073 257.69 54.8751 258.637 54.8751ZM140.305 70.3086C140.305 71.2557 139.537 72.0235 138.59 72.0235C137.643 72.0235 136.875 71.2557 136.875 70.3086C136.875 69.3616 137.643 68.5938 138.59 68.5938C139.537 68.5938 140.305 69.3616 140.305 70.3086ZM155.738 72.0235C156.685 72.0235 157.453 71.2557 157.453 70.3086C157.453 69.3616 156.685 68.5938 155.738 68.5938C154.791 68.5938 154.023 69.3616 154.023 70.3086C154.023 71.2557 154.791 72.0235 155.738 72.0235ZM174.606 70.3086C174.606 71.2557 173.838 72.0235 172.891 72.0235C171.944 72.0235 171.176 71.2557 171.176 70.3086C171.176 69.3616 171.944 68.5938 172.891 68.5938C173.838 68.5938 174.606 69.3616 174.606 70.3086ZM190.035 72.0235C190.982 72.0235 191.75 71.2557 191.75 70.3086C191.75 69.3616 190.982 68.5938 190.035 68.5938C189.088 68.5938 188.32 69.3616 188.32 70.3086C188.32 71.2557 189.088 72.0235 190.035 72.0235ZM208.899 70.3086C208.899 71.2557 208.131 72.0235 207.184 72.0235C206.237 72.0235 205.469 71.2557 205.469 70.3086C205.469 69.3616 206.237 68.5938 207.184 68.5938C208.131 68.5938 208.899 69.3616 208.899 70.3086ZM224.336 72.0235C225.283 72.0235 226.051 71.2557 226.051 70.3086C226.051 69.3616 225.283 68.5938 224.336 68.5938C223.389 68.5938 222.621 69.3616 222.621 70.3086C222.621 71.2557 223.389 72.0235 224.336 72.0235ZM243.199 70.3086C243.199 71.2557 242.431 72.0235 241.484 72.0235C240.537 72.0235 239.77 71.2557 239.77 70.3086C239.77 69.3616 240.537 68.5938 241.484 68.5938C242.431 68.5938 243.199 69.3616 243.199 70.3086ZM258.637 72.0235C259.584 72.0235 260.352 71.2557 260.352 70.3086C260.352 69.3616 259.584 68.5938 258.637 68.5938C257.69 68.5938 256.922 69.3616 256.922 70.3086C256.922 71.2557 257.69 72.0235 258.637 72.0235ZM140.305 87.461C140.305 88.408 139.537 89.1759 138.59 89.1759C137.643 89.1759 136.875 88.408 136.875 87.461C136.875 86.5139 137.643 85.7461 138.59 85.7461C139.537 85.7461 140.305 86.5139 140.305 87.461ZM155.738 89.1759C156.685 89.1759 157.453 88.408 157.453 87.461C157.453 86.5139 156.685 85.7461 155.738 85.7461C154.791 85.7461 154.023 86.5139 154.023 87.461C154.023 88.408 154.791 89.1759 155.738 89.1759ZM174.606 87.461C174.606 88.408 173.838 89.1759 172.891 89.1759C171.944 89.1759 171.176 88.408 171.176 87.461C171.176 86.5139 171.944 85.7461 172.891 85.7461C173.838 85.7461 174.606 86.5139 174.606 87.461ZM190.035 89.1759C190.982 89.1759 191.75 88.408 191.75 87.461C191.75 86.5139 190.982 85.7461 190.035 85.7461C189.088 85.7461 188.32 86.5139 188.32 87.461C188.32 88.408 189.088 89.1759 190.035 89.1759ZM208.899 87.461C208.899 88.408 208.131 89.1759 207.184 89.1759C206.237 89.1759 205.469 88.408 205.469 87.461C205.469 86.5139 206.237 85.7461 207.184 85.7461C208.131 85.7461 208.899 86.5139 208.899 87.461ZM224.336 89.1759C225.283 89.1759 226.051 88.408 226.051 87.461C226.051 86.5139 225.283 85.7461 224.336 85.7461C223.389 85.7461 222.621 86.5139 222.621 87.461C222.621 88.408 223.389 89.1759 224.336 89.1759ZM243.199 87.461C243.199 88.408 242.431 89.1759 241.484 89.1759C240.537 89.1759 239.77 88.408 239.77 87.461C239.77 86.5139 240.537 85.7461 241.484 85.7461C242.431 85.7461 243.199 86.5139 243.199 87.461ZM258.637 89.1759C259.584 89.1759 260.352 88.408 260.352 87.461C260.352 86.5139 259.584 85.7461 258.637 85.7461C257.69 85.7461 256.922 86.5139 256.922 87.461C256.922 88.408 257.69 89.1759 258.637 89.1759ZM140.305 104.609C140.305 105.556 139.537 106.324 138.59 106.324C137.643 106.324 136.875 105.556 136.875 104.609C136.875 103.662 137.643 102.895 138.59 102.895C139.537 102.895 140.305 103.662 140.305 104.609ZM155.738 106.324C156.685 106.324 157.453 105.556 157.453 104.609C157.453 103.662 156.685 102.895 155.738 102.895C154.791 102.895 154.023 103.662 154.023 104.609C154.023 105.556 154.791 106.324 155.738 106.324ZM174.606 104.609C174.606 105.556 173.838 106.324 172.891 106.324C171.944 106.324 171.176 105.556 171.176 104.609C171.176 103.662 171.944 102.895 172.891 102.895C173.838 102.895 174.606 103.662 174.606 104.609ZM190.035 106.324C190.982 106.324 191.75 105.556 191.75 104.609C191.75 103.662 190.982 102.895 190.035 102.895C189.088 102.895 188.32 103.662 188.32 104.609C188.32 105.556 189.088 106.324 190.035 106.324ZM208.899 104.609C208.899 105.556 208.131 106.324 207.184 106.324C206.237 106.324 205.469 105.556 205.469 104.609C205.469 103.662 206.237 102.895 207.184 102.895C208.131 102.895 208.899 103.662 208.899 104.609ZM224.336 106.324C225.283 106.324 226.051 105.556 226.051 104.609C226.051 103.662 225.283 102.895 224.336 102.895C223.389 102.895 222.621 103.662 222.621 104.609C222.621 105.556 223.389 106.324 224.336 106.324ZM243.199 104.609C243.199 105.556 242.431 106.324 241.484 106.324C240.537 106.324 239.77 105.556 239.77 104.609C239.77 103.662 240.537 102.895 241.484 102.895C242.431 102.895 243.199 103.662 243.199 104.609ZM258.637 106.324C259.584 106.324 260.352 105.556 260.352 104.609C260.352 103.662 259.584 102.895 258.637 102.895C257.69 102.895 256.922 103.662 256.922 104.609C256.922 105.556 257.69 106.324 258.637 106.324ZM140.305 121.754C140.305 122.701 139.537 123.469 138.59 123.469C137.643 123.469 136.875 122.701 136.875 121.754C136.875 120.807 137.643 120.039 138.59 120.039C139.537 120.039 140.305 120.807 140.305 121.754ZM155.738 123.469C156.685 123.469 157.453 122.701 157.453 121.754C157.453 120.807 156.685 120.039 155.738 120.039C154.791 120.039 154.023 120.807 154.023 121.754C154.023 122.701 154.791 123.469 155.738 123.469ZM174.606 121.754C174.606 122.701 173.838 123.469 172.891 123.469C171.944 123.469 171.176 122.701 171.176 121.754C171.176 120.807 171.944 120.039 172.891 120.039C173.838 120.039 174.606 120.807 174.606 121.754ZM190.035 123.469C190.982 123.469 191.75 122.701 191.75 121.754C191.75 120.807 190.982 120.039 190.035 120.039C189.088 120.039 188.32 120.807 188.32 121.754C188.32 122.701 189.088 123.469 190.035 123.469ZM208.899 121.754C208.899 122.701 208.131 123.469 207.184 123.469C206.237 123.469 205.469 122.701 205.469 121.754C205.469 120.807 206.237 120.039 207.184 120.039C208.131 120.039 208.899 120.807 208.899 121.754ZM224.336 123.469C225.283 123.469 226.051 122.701 226.051 121.754C226.051 120.807 225.283 120.039 224.336 120.039C223.389 120.039 222.621 120.807 222.621 121.754C222.621 122.701 223.389 123.469 224.336 123.469ZM243.199 121.754C243.199 122.701 242.431 123.469 241.484 123.469C240.537 123.469 239.77 122.701 239.77 121.754C239.77 120.807 240.537 120.039 241.484 120.039C242.431 120.039 243.199 120.807 243.199 121.754ZM258.637 123.469C259.584 123.469 260.352 122.701 260.352 121.754C260.352 120.807 259.584 120.039 258.637 120.039C257.69 120.039 256.922 120.807 256.922 121.754C256.922 122.701 257.69 123.469 258.637 123.469Z" fill="#F94973"/>
<path fill-rule="evenodd" clip-rule="evenodd" d="M138.59 140.305C139.537 140.305 140.305 139.537 140.305 138.59C140.305 137.643 139.537 136.875 138.59 136.875C137.643 136.875 136.875 137.643 136.875 138.59C136.875 139.537 137.643 140.305 138.59 140.305ZM155.738 140.305C156.685 140.305 157.453 139.537 157.453 138.59C157.453 137.643 156.685 136.875 155.738 136.875C154.791 136.875 154.023 137.643 154.023 138.59C154.023 139.537 154.791 140.305 155.738 140.305ZM174.606 138.59C174.606 139.537 173.838 140.305 172.891 140.305C171.944 140.305 171.176 139.537 171.176 138.59C171.176 137.643 171.944 136.875 172.891 136.875C173.838 136.875 174.606 137.643 174.606 138.59ZM190.035 140.305C190.982 140.305 191.75 139.537 191.75 138.59C191.75 137.643 190.982 136.875 190.035 136.875C189.088 136.875 188.32 137.643 188.32 138.59C188.32 139.537 189.088 140.305 190.035 140.305ZM208.899 138.59C208.899 139.537 208.131 140.305 207.184 140.305C206.237 140.305 205.469 139.537 205.469 138.59C205.469 137.643 206.237 136.875 207.184 136.875C208.131 136.875 208.899 137.643 208.899 138.59ZM224.336 140.305C225.283 140.305 226.051 139.537 226.051 138.59C226.051 137.643 225.283 136.875 224.336 136.875C223.389 136.875 222.621 137.643 222.621 138.59C222.621 139.537 223.389 140.305 224.336 140.305ZM243.199 138.59C243.199 139.537 242.431 140.305 241.484 140.305C240.537 140.305 239.77 139.537 239.77 138.59C239.77 137.643 240.537 136.875 241.484 136.875C242.431 136.875 243.199 137.643 243.199 138.59ZM258.637 140.305C259.584 140.305 260.352 139.537 260.352 138.59C260.352 137.643 259.584 136.875 258.637 136.875C257.69 136.875 256.922 137.643 256.922 138.59C256.922 139.537 257.69 140.305 258.637 140.305ZM140.305 155.734C140.305 156.681 139.537 157.449 138.59 157.449C137.643 157.449 136.875 156.681 136.875 155.734C136.875 154.787 137.643 154.02 138.59 154.02C139.537 154.02 140.305 154.787 140.305 155.734ZM155.738 157.449C156.685 157.449 157.453 156.681 157.453 155.734C157.453 154.787 156.685 154.02 155.738 154.02C154.791 154.02 154.023 154.787 154.023 155.734C154.023 156.681 154.791 157.449 155.738 157.449ZM174.606 155.734C174.606 156.681 173.838 157.449 172.891 157.449C171.944 157.449 171.176 156.681 171.176 155.734C171.176 154.787 171.944 154.02 172.891 154.02C173.838 154.02 174.606 154.787 174.606 155.734ZM190.035 157.449C190.982 157.449 191.75 156.681 191.75 155.734C191.75 154.787 190.982 154.02 190.035 154.02C189.088 154.02 188.32 154.787 188.32 155.734C188.32 156.681 189.088 157.449 190.035 157.449ZM208.899 155.734C208.899 156.681 208.131 157.449 207.184 157.449C206.237 157.449 205.469 156.681 205.469 155.734C205.469 154.787 206.237 154.02 207.184 154.02C208.131 154.02 208.899 154.787 208.899 155.734ZM224.336 157.449C225.283 157.449 226.051 156.681 226.051 155.734C226.051 154.787 225.283 154.02 224.336 154.02C223.389 154.02 222.621 154.787 222.621 155.734C222.621 156.681 223.389 157.449 224.336 157.449ZM243.199 155.734C243.199 156.681 242.431 157.449 241.484 157.449C240.537 157.449 239.77 156.681 239.77 155.734C239.77 154.787 240.537 154.02 241.484 154.02C242.431 154.02 243.199 154.787 243.199 155.734ZM258.637 157.449C259.584 157.449 260.352 156.681 260.352 155.734C260.352 154.787 259.584 154.02 258.637 154.02C257.69 154.02 256.922 154.787 256.922 155.734C256.922 156.681 257.69 157.449 258.637 157.449ZM140.305 172.891C140.305 173.838 139.537 174.606 138.59 174.606C137.643 174.606 136.875 173.838 136.875 172.891C136.875 171.944 137.643 171.176 138.59 171.176C139.537 171.176 140.305 171.944 140.305 172.891ZM155.738 174.606C156.685 174.606 157.453 173.838 157.453 172.891C157.453 171.944 156.685 171.176 155.738 171.176C154.791 171.176 154.023 171.944 154.023 172.891C154.023 173.838 154.791 174.606 155.738 174.606ZM174.606 172.891C174.606 173.838 173.838 174.606 172.891 174.606C171.944 174.606 171.176 173.838 171.176 172.891C171.176 171.944 171.944 171.176 172.891 171.176C173.838 171.176 174.606 171.944 174.606 172.891ZM190.035 174.606C190.982 174.606 191.75 173.838 191.75 172.891C191.75 171.944 190.982 171.176 190.035 171.176C189.088 171.176 188.32 171.944 188.32 172.891C188.32 173.838 189.088 174.606 190.035 174.606ZM208.899 172.891C208.899 173.838 208.131 174.606 207.184 174.606C206.237 174.606 205.469 173.838 205.469 172.891C205.469 171.944 206.237 171.176 207.184 171.176C208.131 171.176 208.899 171.944 208.899 172.891ZM224.336 174.606C225.283 174.606 226.051 173.838 226.051 172.891C226.051 171.944 225.283 171.176 224.336 171.176C223.389 171.176 222.621 171.944 222.621 172.891C222.621 173.838 223.389 174.606 224.336 174.606ZM243.199 172.891C243.199 173.838 242.431 174.606 241.484 174.606C240.537 174.606 239.77 173.838 239.77 172.891C239.77 171.944 240.537 171.176 241.484 171.176C242.431 171.176 243.199 171.944 243.199 172.891ZM258.637 174.606C259.584 174.606 260.352 173.838 260.352 172.891C260.352 171.944 259.584 171.176 258.637 171.176C257.69 171.176 256.922 171.944 256.922 172.891C256.922 173.838 257.69 174.606 258.637 174.606ZM140.305 190.035C140.305 190.982 139.537 191.75 138.59 191.75C137.643 191.75 136.875 190.982 136.875 190.035C136.875 189.088 137.643 188.32 138.59 188.32C139.537 188.32 140.305 189.088 140.305 190.035ZM155.738 191.754C156.685 191.754 157.453 190.986 157.453 190.039C157.453 189.092 156.685 188.324 155.738 188.324C154.791 188.324 154.023 189.092 154.023 190.039C154.023 190.986 154.791 191.754 155.738 191.754ZM174.606 190.039C174.606 190.986 173.838 191.754 172.891 191.754C171.944 191.754 171.176 190.986 171.176 190.039C171.176 189.092 171.944 188.324 172.891 188.324C173.838 188.324 174.606 189.092 174.606 190.039ZM190.035 191.754C190.982 191.754 191.75 190.986 191.75 190.039C191.75 189.092 190.982 188.324 190.035 188.324C189.088 188.324 188.32 189.092 188.32 190.039C188.32 190.986 189.088 191.754 190.035 191.754ZM208.899 190.035C208.899 190.982 208.131 191.75 207.184 191.75C206.237 191.75 205.469 190.982 205.469 190.035C205.469 189.088 206.237 188.32 207.184 188.32C208.131 188.32 208.899 189.088 208.899 190.035ZM224.336 191.754C225.283 191.754 226.051 190.986 226.051 190.039C226.051 189.092 225.283 188.324 224.336 188.324C223.389 188.324 222.621 189.092 222.621 190.039C222.621 190.986 223.389 191.754 224.336 191.754ZM243.199 190.039C243.199 190.986 242.431 191.754 241.484 191.754C240.537 191.754 239.77 190.986 239.77 190.039C239.77 189.092 240.537 188.324 241.484 188.324C242.431 188.324 243.199 189.092 243.199 190.039ZM258.637 191.754C259.584 191.754 260.352 190.986 260.352 190.039C260.352 189.092 259.584 188.324 258.637 188.324C257.69 188.324 256.922 189.092 256.922 190.039C256.922 190.986 257.69 191.754 258.637 191.754ZM140.305 207.184C140.305 208.131 139.537 208.899 138.59 208.899C137.643 208.899 136.875 208.131 136.875 207.184C136.875 206.237 137.643 205.469 138.59 205.469C139.537 205.469 140.305 206.237 140.305 207.184ZM155.738 208.899C156.685 208.899 157.453 208.131 157.453 207.184C157.453 206.237 156.685 205.469 155.738 205.469C154.791 205.469 154.023 206.237 154.023 207.184C154.023 208.131 154.791 208.899 155.738 208.899ZM174.606 207.184C174.606 208.131 173.838 208.899 172.891 208.899C171.944 208.899 171.176 208.131 171.176 207.184C171.176 206.237 171.944 205.469 172.891 205.469C173.838 205.469 174.606 206.237 174.606 207.184ZM190.035 208.899C190.982 208.899 191.75 208.131 191.75 207.184C191.75 206.237 190.982 205.469 190.035 205.469C189.088 205.469 188.32 206.237 188.32 207.184C188.32 208.131 189.088 208.899 190.035 208.899ZM208.899 207.184C208.899 208.131 208.131 208.899 207.184 208.899C206.237 208.899 205.469 208.131 205.469 207.184C205.469 206.237 206.237 205.469 207.184 205.469C208.131 205.469 208.899 206.237 208.899 207.184ZM224.336 208.899C225.283 208.899 226.051 208.131 226.051 207.184C226.051 206.237 225.283 205.469 224.336 205.469C223.389 205.469 222.621 206.237 222.621 207.184C222.621 208.131 223.389 208.899 224.336 208.899ZM243.199 207.184C243.199 208.131 242.431 208.899 241.484 208.899C240.537 208.899 239.77 208.131 239.77 207.184C239.77 206.237 240.537 205.469 241.484 205.469C242.431 205.469 243.199 206.237 243.199 207.184ZM258.637 208.899C259.584 208.899 260.352 208.131 260.352 207.184C260.352 206.237 259.584 205.469 258.637 205.469C257.69 205.469 256.922 206.237 256.922 207.184C256.922 208.131 257.69 208.899 258.637 208.899ZM140.305 224.336C140.305 225.283 139.537 226.051 138.59 226.051C137.643 226.051 136.875 225.283 136.875 224.336C136.875 223.389 137.643 222.621 138.59 222.621C139.537 222.621 140.305 223.389 140.305 224.336ZM155.738 226.051C156.685 226.051 157.453 225.283 157.453 224.336C157.453 223.389 156.685 222.621 155.738 222.621C154.791 222.621 154.023 223.389 154.023 224.336C154.023 225.283 154.791 226.051 155.738 226.051ZM174.606 224.336C174.606 225.283 173.838 226.051 172.891 226.051C171.944 226.051 171.176 225.283 171.176 224.336C171.176 223.389 171.944 222.621 172.891 222.621C173.838 222.621 174.606 223.389 174.606 224.336ZM190.035 226.051C190.982 226.051 191.75 225.283 191.75 224.336C191.75 223.389 190.982 222.621 190.035 222.621C189.088 222.621 188.32 223.389 188.32 224.336C188.32 225.283 189.088 226.051 190.035 226.051ZM208.899 224.336C208.899 225.283 208.131 226.051 207.184 226.051C206.237 226.051 205.469 225.283 205.469 224.336C205.469 223.389 206.237 222.621 207.184 222.621C208.131 222.621 208.899 223.389 208.899 224.336ZM224.336 226.051C225.283 226.051 226.051 225.283 226.051 224.336C226.051 223.389 225.283 222.621 224.336 222.621C223.389 222.621 222.621 223.389 222.621 224.336C222.621 225.283 223.389 226.051 224.336 226.051ZM243.199 224.336C243.199 225.283 242.431 226.051 241.484 226.051C240.537 226.051 239.77 225.283 239.77 224.336C239.77 223.389 240.537 222.621 241.484 222.621C242.431 222.621 243.199 223.389 243.199 224.336ZM258.637 226.051C259.584 226.051 260.352 225.283 260.352 224.336C260.352 223.389 259.584 222.621 258.637 222.621C257.69 222.621 256.922 223.389 256.922 224.336C256.922 225.283 257.69 226.051 258.637 226.051ZM140.305 241.484C140.305 242.431 139.537 243.199 138.59 243.199C137.643 243.199 136.875 242.431 136.875 241.484C136.875 240.537 137.643 239.77 138.59 239.77C139.537 239.77 140.305 240.537 140.305 241.484ZM155.738 243.199C156.685 243.199 157.453 242.431 157.453 241.484C157.453 240.537 156.685 239.77 155.738 239.77C154.791 239.77 154.023 240.537 154.023 241.484C154.023 242.431 154.791 243.199 155.738 243.199ZM174.606 241.484C174.606 242.431 173.838 243.199 172.891 243.199C171.944 243.199 171.176 242.431 171.176 241.484C171.176 240.537 171.944 239.77 172.891 239.77C173.838 239.77 174.606 240.537 174.606 241.484ZM190.035 243.199C190.982 243.199 191.75 242.431 191.75 241.484C191.75 240.537 190.982 239.77 190.035 239.77C189.088 239.77 188.32 240.537 188.32 241.484C188.32 242.431 189.088 243.199 190.035 243.199ZM208.899 241.484C208.899 242.431 208.131 243.199 207.184 243.199C206.237 243.199 205.469 242.431 205.469 241.484C205.469 240.537 206.237 239.77 207.184 239.77C208.131 239.77 208.899 240.537 208.899 241.484ZM224.336 243.199C225.283 243.199 226.051 242.431 226.051 241.484C226.051 240.537 225.283 239.77 224.336 239.77C223.389 239.77 222.621 240.537 222.621 241.484C222.621 242.431 223.389 243.199 224.336 243.199ZM243.199 241.484C243.199 242.431 242.431 243.199 241.484 243.199C240.537 243.199 239.77 242.431 239.77 241.484C239.77 240.537 240.537 239.77 241.484 239.77C242.431 239.77 243.199 240.537 243.199 241.484ZM258.637 243.199C259.584 243.199 260.352 242.431 260.352 241.484C260.352 240.537 259.584 239.77 258.637 239.77C257.69 239.77 256.922 240.537 256.922 241.484C256.922 242.431 257.69 243.199 258.637 243.199ZM140.305 258.629C140.305 259.576 139.537 260.344 138.59 260.344C137.643 260.344 136.875 259.576 136.875 258.629C136.875 257.682 137.643 256.914 138.59 256.914C139.537 256.914 140.305 257.682 140.305 258.629ZM155.738 260.352C156.685 260.352 157.453 259.584 157.453 258.637C157.453 257.69 156.685 256.922 155.738 256.922C154.791 256.922 154.023 257.69 154.023 258.637C154.023 259.584 154.791 260.352 155.738 260.352ZM174.606 258.637C174.606 259.584 173.838 260.352 172.891 260.352C171.944 260.352 171.176 259.584 171.176 258.637C171.176 257.69 171.944 256.922 172.891 256.922C173.838 256.922 174.606 257.69 174.606 258.637ZM190.035 260.352C190.982 260.352 191.75 259.584 191.75 258.637C191.75 257.69 190.982 256.922 190.035 256.922C189.088 256.922 188.32 257.69 188.32 258.637C188.32 259.584 189.088 260.352 190.035 260.352ZM208.899 258.629C208.899 259.576 208.131 260.344 207.184 260.344C206.237 260.344 205.469 259.576 205.469 258.629C205.469 257.682 206.237 256.914 207.184 256.914C208.131 256.914 208.899 257.682 208.899 258.629ZM224.336 260.352C225.283 260.352 226.051 259.584 226.051 258.637C226.051 257.69 225.283 256.922 224.336 256.922C223.389 256.922 222.621 257.69 222.621 258.637C222.621 259.584 223.389 260.352 224.336 260.352ZM243.199 258.637C243.199 259.584 242.431 260.352 241.484 260.352C240.537 260.352 239.77 259.584 239.77 258.637C239.77 257.69 240.537 256.922 241.484 256.922C242.431 256.922 243.199 257.69 243.199 258.637ZM258.637 260.352C259.584 260.352 260.352 259.584 260.352 258.637C260.352 257.69 259.584 256.922 258.637 256.922C257.69 256.922 256.922 257.69 256.922 258.637C256.922 259.584 257.69 260.352 258.637 260.352Z" fill="#F94973"/>
<path fill-rule="evenodd" clip-rule="evenodd" d="M1.71489 3.42978C2.66194 3.42978 3.42978 2.66194 3.42978 1.71489C3.42978 0.767843 2.66194 0 1.71489 0C0.767843 0 0 0.767843 0 1.71489C0 2.66194 0.767843 3.42978 1.71489 3.42978ZM18.8633 3.42978C19.8104 3.42978 20.5782 2.66194 20.5782 1.71489C20.5782 0.767843 19.8104 0 18.8633 0C17.9163 0 17.1484 0.767843 17.1484 1.71489C17.1484 2.66194 17.9163 3.42978 18.8633 3.42978ZM37.7306 1.71489C37.7306 2.66194 36.9627 3.42978 36.0157 3.42978C35.0686 3.42978 34.3008 2.66194 34.3008 1.71489C34.3008 0.767843 35.0686 0 36.0157 0C36.9627 0 37.7306 0.767843 37.7306 1.71489ZM53.1603 3.42978C54.1073 3.42978 54.8752 2.66194 54.8752 1.71489C54.8752 0.767843 54.1073 0 53.1603 0C52.2132 0 51.4454 0.767843 51.4454 1.71489C51.4454 2.66194 52.2132 3.42978 53.1603 3.42978ZM72.0235 1.71489C72.0235 2.66194 71.2557 3.42978 70.3086 3.42978C69.3616 3.42978 68.5938 2.66194 68.5938 1.71489C68.5938 0.767843 69.3616 0 70.3086 0C71.2557 0 72.0235 0.767843 72.0235 1.71489ZM87.461 3.42978C88.408 3.42978 89.1759 2.66194 89.1759 1.71489C89.1759 0.767843 88.408 0 87.461 0C86.5139 0 85.7461 0.767843 85.7461 1.71489C85.7461 2.66194 86.5139 3.42978 87.461 3.42978ZM106.324 1.71489C106.324 2.66194 105.556 3.42978 104.609 3.42978C103.662 3.42978 102.895 2.66194 102.895 1.71489C102.895 0.767843 103.662 0 104.609 0C105.556 0 106.324 0.767843 106.324 1.71489ZM121.762 3.42978C122.709 3.42978 123.477 2.66194 123.477 1.71489C123.477 0.767843 122.709 0 121.762 0C120.815 0 120.047 0.767843 120.047 1.71489C120.047 2.66194 120.815 3.42978 121.762 3.42978ZM3.42978 18.8594C3.42978 19.8065 2.66194 20.5743 1.71489 20.5743C0.767843 20.5743 0 19.8065 0 18.8594C0 17.9124 0.767843 17.1445 1.71489 17.1445C2.66194 17.1445 3.42978 17.9124 3.42978 18.8594ZM18.8633 20.5782C19.8104 20.5782 20.5782 19.8104 20.5782 18.8633C20.5782 17.9163 19.8104 17.1484 18.8633 17.1484C17.9163 17.1484 17.1484 17.9163 17.1484 18.8633C17.1484 19.8104 17.9163 20.5782 18.8633 20.5782ZM37.7306 18.8633C37.7306 19.8104 36.9627 20.5782 36.0157 20.5782C35.0686 20.5782 34.3008 19.8104 34.3008 18.8633C34.3008 17.9163 35.0686 17.1484 36.0157 17.1484C36.9627 17.1484 37.7306 17.9163 37.7306 18.8633ZM53.1602 20.5782C54.1073 20.5782 54.8751 19.8104 54.8751 18.8633C54.8751 17.9163 54.1073 17.1484 53.1602 17.1484C52.2132 17.1484 51.4453 17.9163 51.4453 18.8633C51.4453 19.8104 52.2132 20.5782 53.1602 20.5782ZM72.0235 18.8594C72.0235 19.8065 71.2557 20.5743 70.3086 20.5743C69.3616 20.5743 68.5938 19.8065 68.5938 18.8594C68.5938 17.9124 69.3616 17.1445 70.3086 17.1445C71.2557 17.1445 72.0235 17.9124 72.0235 18.8594ZM87.461 20.5782C88.408 20.5782 89.1759 19.8104 89.1759 18.8633C89.1759 17.9163 88.408 17.1484 87.461 17.1484C86.5139 17.1484 85.7461 17.9163 85.7461 18.8633C85.7461 19.8104 86.5139 20.5782 87.461 20.5782ZM106.324 18.8633C106.324 19.8104 105.556 20.5782 104.609 20.5782C103.662 20.5782 102.895 19.8104 102.895 18.8633C102.895 17.9163 103.662 17.1484 104.609 17.1484C105.556 17.1484 106.324 17.9163 106.324 18.8633ZM121.762 20.5782C122.709 20.5782 123.477 19.8104 123.477 18.8633C123.477 17.9163 122.709 17.1484 121.762 17.1484C120.815 17.1484 120.047 17.9163 120.047 18.8633C120.047 19.8104 120.815 20.5782 121.762 20.5782ZM3.42978 36.0157C3.42978 36.9627 2.66194 37.7306 1.71489 37.7306C0.767843 37.7306 0 36.9627 0 36.0157C0 35.0686 0.767843 34.3008 1.71489 34.3008C2.66194 34.3008 3.42978 35.0686 3.42978 36.0157ZM18.8633 37.7306C19.8104 37.7306 20.5782 36.9627 20.5782 36.0157C20.5782 35.0686 19.8104 34.3008 18.8633 34.3008C17.9163 34.3008 17.1484 35.0686 17.1484 36.0157C17.1484 36.9627 17.9163 37.7306 18.8633 37.7306ZM37.7306 36.0157C37.7306 36.9627 36.9627 37.7306 36.0157 37.7306C35.0686 37.7306 34.3008 36.9627 34.3008 36.0157C34.3008 35.0686 35.0686 34.3008 36.0157 34.3008C36.9627 34.3008 37.7306 35.0686 37.7306 36.0157ZM53.1602 37.7306C54.1073 37.7306 54.8751 36.9627 54.8751 36.0157C54.8751 35.0686 54.1073 34.3008 53.1602 34.3008C52.2132 34.3008 51.4453 35.0686 51.4453 36.0157C51.4453 36.9627 52.2132 37.7306 53.1602 37.7306ZM72.0235 36.0157C72.0235 36.9627 71.2557 37.7306 70.3086 37.7306C69.3616 37.7306 68.5938 36.9627 68.5938 36.0157C68.5938 35.0686 69.3616 34.3008 70.3086 34.3008C71.2557 34.3008 72.0235 35.0686 72.0235 36.0157ZM87.461 37.7306C88.408 37.7306 89.1759 36.9627 89.1759 36.0157C89.1759 35.0686 88.408 34.3008 87.461 34.3008C86.5139 34.3008 85.7461 35.0686 85.7461 36.0157C85.7461 36.9627 86.5139 37.7306 87.461 37.7306ZM106.324 36.0157C106.324 36.9627 105.556 37.7306 104.609 37.7306C103.662 37.7306 102.895 36.9627 102.895 36.0157C102.895 35.0686 103.662 34.3008 104.609 34.3008C105.556 34.3008 106.324 35.0686 106.324 36.0157ZM121.762 37.7306C122.709 37.7306 123.477 36.9627 123.477 36.0157C123.477 35.0686 122.709 34.3008 121.762 34.3008C120.815 34.3008 120.047 35.0686 120.047 36.0157C120.047 36.9627 120.815 37.7306 121.762 37.7306ZM3.42978 53.1603C3.42978 54.1073 2.66194 54.8752 1.71489 54.8752C0.767843 54.8752 0 54.1073 0 53.1603C0 52.2132 0.767843 51.4454 1.71489 51.4454C2.66194 51.4454 3.42978 52.2132 3.42978 53.1603ZM18.8633 54.8751C19.8104 54.8751 20.5782 54.1073 20.5782 53.1602C20.5782 52.2132 19.8104 51.4453 18.8633 51.4453C17.9163 51.4453 17.1484 52.2132 17.1484 53.1602C17.1484 54.1073 17.9163 54.8751 18.8633 54.8751ZM37.7306 53.1602C37.7306 54.1073 36.9627 54.8751 36.0157 54.8751C35.0686 54.8751 34.3008 54.1073 34.3008 53.1602C34.3008 52.2132 35.0686 51.4453 36.0157 51.4453C36.9627 51.4453 37.7306 52.2132 37.7306 53.1602ZM53.1603 54.8752C54.1073 54.8752 54.8752 54.1073 54.8752 53.1603C54.8752 52.2132 54.1073 51.4454 53.1603 51.4454C52.2132 51.4454 51.4454 52.2132 51.4454 53.1603C51.4454 54.1073 52.2132 54.8752 53.1603 54.8752ZM72.0235 53.1602C72.0235 54.1073 71.2557 54.8751 70.3086 54.8751C69.3616 54.8751 68.5938 54.1073 68.5938 53.1602C68.5938 52.2132 69.3616 51.4453 70.3086 51.4453C71.2557 51.4453 72.0235 52.2132 72.0235 53.1602ZM87.461 54.8751C88.408 54.8751 89.1759 54.1073 89.1759 53.1602C89.1759 52.2132 88.408 51.4453 87.461 51.4453C86.5139 51.4453 85.7461 52.2132 85.7461 53.1602C85.7461 54.1073 86.5139 54.8751 87.461 54.8751ZM106.324 53.1602C106.324 54.1073 105.556 54.8751 104.609 54.8751C103.662 54.8751 102.895 54.1073 102.895 53.1602C102.895 52.2132 103.662 51.4453 104.609 51.4453C105.556 51.4453 106.324 52.2132 106.324 53.1602ZM121.762 54.8751C122.709 54.8751 123.477 54.1073 123.477 53.1602C123.477 52.2132 122.709 51.4453 121.762 51.4453C120.815 51.4453 120.047 52.2132 120.047 53.1602C120.047 54.1073 120.815 54.8751 121.762 54.8751ZM3.42978 70.3086C3.42978 71.2557 2.66194 72.0235 1.71489 72.0235C0.767843 72.0235 0 71.2557 0 70.3086C0 69.3616 0.767843 68.5938 1.71489 68.5938C2.66194 68.5938 3.42978 69.3616 3.42978 70.3086ZM18.8633 72.0235C19.8104 72.0235 20.5782 71.2557 20.5782 70.3086C20.5782 69.3616 19.8104 68.5938 18.8633 68.5938C17.9163 68.5938 17.1484 69.3616 17.1484 70.3086C17.1484 71.2557 17.9163 72.0235 18.8633 72.0235ZM37.7306 70.3086C37.7306 71.2557 36.9627 72.0235 36.0157 72.0235C35.0686 72.0235 34.3008 71.2557 34.3008 70.3086C34.3008 69.3616 35.0686 68.5938 36.0157 68.5938C36.9627 68.5938 37.7306 69.3616 37.7306 70.3086ZM53.1602 72.0235C54.1073 72.0235 54.8751 71.2557 54.8751 70.3086C54.8751 69.3616 54.1073 68.5938 53.1602 68.5938C52.2132 68.5938 51.4453 69.3616 51.4453 70.3086C51.4453 71.2557 52.2132 72.0235 53.1602 72.0235ZM72.0235 70.3086C72.0235 71.2557 71.2557 72.0235 70.3086 72.0235C69.3616 72.0235 68.5938 71.2557 68.5938 70.3086C68.5938 69.3616 69.3616 68.5938 70.3086 68.5938C71.2557 68.5938 72.0235 69.3616 72.0235 70.3086ZM87.461 72.0235C88.408 72.0235 89.1759 71.2557 89.1759 70.3086C89.1759 69.3616 88.408 68.5938 87.461 68.5938C86.5139 68.5938 85.7461 69.3616 85.7461 70.3086C85.7461 71.2557 86.5139 72.0235 87.461 72.0235ZM106.324 70.3086C106.324 71.2557 105.556 72.0235 104.609 72.0235C103.662 72.0235 102.895 71.2557 102.895 70.3086C102.895 69.3616 103.662 68.5938 104.609 68.5938C105.556 68.5938 106.324 69.3616 106.324 70.3086ZM121.762 72.0235C122.709 72.0235 123.477 71.2557 123.477 70.3086C123.477 69.3616 122.709 68.5938 121.762 68.5938C120.815 68.5938 120.047 69.3616 120.047 70.3086C120.047 71.2557 120.815 72.0235 121.762 72.0235ZM3.42978 87.461C3.42978 88.408 2.66194 89.1759 1.71489 89.1759C0.767843 89.1759 0 88.408 0 87.461C0 86.5139 0.767843 85.7461 1.71489 85.7461C2.66194 85.7461 3.42978 86.5139 3.42978 87.461ZM18.8633 89.1759C19.8104 89.1759 20.5782 88.408 20.5782 87.461C20.5782 86.5139 19.8104 85.7461 18.8633 85.7461C17.9163 85.7461 17.1484 86.5139 17.1484 87.461C17.1484 88.408 17.9163 89.1759 18.8633 89.1759ZM37.7306 87.461C37.7306 88.408 36.9627 89.1759 36.0157 89.1759C35.0686 89.1759 34.3008 88.408 34.3008 87.461C34.3008 86.5139 35.0686 85.7461 36.0157 85.7461C36.9627 85.7461 37.7306 86.5139 37.7306 87.461ZM53.1602 89.1759C54.1073 89.1759 54.8751 88.408 54.8751 87.461C54.8751 86.5139 54.1073 85.7461 53.1602 85.7461C52.2132 85.7461 51.4453 86.5139 51.4453 87.461C51.4453 88.408 52.2132 89.1759 53.1602 89.1759ZM72.0235 87.461C72.0235 88.408 71.2557 89.1759 70.3086 89.1759C69.3616 89.1759 68.5938 88.408 68.5938 87.461C68.5938 86.5139 69.3616 85.7461 70.3086 85.7461C71.2557 85.7461 72.0235 86.5139 72.0235 87.461ZM87.461 89.1759C88.408 89.1759 89.1759 88.408 89.1759 87.461C89.1759 86.5139 88.408 85.7461 87.461 85.7461C86.5139 85.7461 85.7461 86.5139 85.7461 87.461C85.7461 88.408 86.5139 89.1759 87.461 89.1759ZM106.324 87.461C106.324 88.408 105.556 89.1759 104.609 89.1759C103.662 89.1759 102.895 88.408 102.895 87.461C102.895 86.5139 103.662 85.7461 104.609 85.7461C105.556 85.7461 106.324 86.5139 106.324 87.461ZM121.762 89.1759C122.709 89.1759 123.477 88.408 123.477 87.461C123.477 86.5139 122.709 85.7461 121.762 85.7461C120.815 85.7461 120.047 86.5139 120.047 87.461C120.047 88.408 120.815 89.1759 121.762 89.1759ZM3.42978 104.609C3.42978 105.556 2.66194 106.324 1.71489 106.324C0.767843 106.324 0 105.556 0 104.609C0 103.662 0.767843 102.895 1.71489 102.895C2.66194 102.895 3.42978 103.662 3.42978 104.609ZM18.8633 106.324C19.8104 106.324 20.5782 105.556 20.5782 104.609C20.5782 103.662 19.8104 102.895 18.8633 102.895C17.9163 102.895 17.1484 103.662 17.1484 104.609C17.1484 105.556 17.9163 106.324 18.8633 106.324ZM37.7306 104.609C37.7306 105.556 36.9627 106.324 36.0157 106.324C35.0686 106.324 34.3008 105.556 34.3008 104.609C34.3008 103.662 35.0686 102.895 36.0157 102.895C36.9627 102.895 37.7306 103.662 37.7306 104.609ZM53.1602 106.324C54.1073 106.324 54.8751 105.556 54.8751 104.609C54.8751 103.662 54.1073 102.895 53.1602 102.895C52.2132 102.895 51.4453 103.662 51.4453 104.609C51.4453 105.556 52.2132 106.324 53.1602 106.324ZM72.0235 104.609C72.0235 105.556 71.2557 106.324 70.3086 106.324C69.3616 106.324 68.5938 105.556 68.5938 104.609C68.5938 103.662 69.3616 102.895 70.3086 102.895C71.2557 102.895 72.0235 103.662 72.0235 104.609ZM87.461 106.324C88.408 106.324 89.1759 105.556 89.1759 104.609C89.1759 103.662 88.408 102.895 87.461 102.895C86.5139 102.895 85.7461 103.662 85.7461 104.609C85.7461 105.556 86.5139 106.324 87.461 106.324ZM106.324 104.609C106.324 105.556 105.556 106.324 104.609 106.324C103.662 106.324 102.895 105.556 102.895 104.609C102.895 103.662 103.662 102.895 104.609 102.895C105.556 102.895 106.324 103.662 106.324 104.609ZM121.762 106.324C122.709 106.324 123.477 105.556 123.477 104.609C123.477 103.662 122.709 102.895 121.762 102.895C120.815 102.895 120.047 103.662 120.047 104.609C120.047 105.556 120.815 106.324 121.762 106.324ZM3.42978 121.754C3.42978 122.701 2.66194 123.469 1.71489 123.469C0.767843 123.469 0 122.701 0 121.754C0 120.807 0.767843 120.039 1.71489 120.039C2.66194 120.039 3.42978 120.807 3.42978 121.754ZM18.8633 123.469C19.8104 123.469 20.5782 122.701 20.5782 121.754C20.5782 120.807 19.8104 120.039 18.8633 120.039C17.9163 120.039 17.1484 120.807 17.1484 121.754C17.1484 122.701 17.9163 123.469 18.8633 123.469ZM37.7306 121.754C37.7306 122.701 36.9627 123.469 36.0157 123.469C35.0686 123.469 34.3008 122.701 34.3008 121.754C34.3008 120.807 35.0686 120.039 36.0157 120.039C36.9627 120.039 37.7306 120.807 37.7306 121.754ZM53.1602 123.469C54.1073 123.469 54.8751 122.701 54.8751 121.754C54.8751 120.807 54.1073 120.039 53.1602 120.039C52.2132 120.039 51.4453 120.807 51.4453 121.754C51.4453 122.701 52.2132 123.469 53.1602 123.469ZM72.0235 121.754C72.0235 122.701 71.2557 123.469 70.3086 123.469C69.3616 123.469 68.5938 122.701 68.5938 121.754C68.5938 120.807 69.3616 120.039 70.3086 120.039C71.2557 120.039 72.0235 120.807 72.0235 121.754ZM87.461 123.469C88.408 123.469 89.1759 122.701 89.1759 121.754C89.1759 120.807 88.408 120.039 87.461 120.039C86.5139 120.039 85.7461 120.807 85.7461 121.754C85.7461 122.701 86.5139 123.469 87.461 123.469ZM106.324 121.754C106.324 122.701 105.556 123.469 104.609 123.469C103.662 123.469 102.895 122.701 102.895 121.754C102.895 120.807 103.662 120.039 104.609 120.039C105.556 120.039 106.324 120.807 106.324 121.754ZM121.762 123.469C122.709 123.469 123.477 122.701 123.477 121.754C123.477 120.807 122.709 120.039 121.762 120.039C120.815 120.039 120.047 120.807 120.047 121.754C120.047 122.701 120.815 123.469 121.762 123.469Z" fill="#F94973"/>
<path fill-rule="evenodd" clip-rule="evenodd" d="M1.71489 140.305C2.66194 140.305 3.42978 139.537 3.42978 138.59C3.42978 137.643 2.66194 136.875 1.71489 136.875C0.767843 136.875 0 137.643 0 138.59C0 139.537 0.767843 140.305 1.71489 140.305ZM18.8633 140.305C19.8104 140.305 20.5782 139.537 20.5782 138.59C20.5782 137.643 19.8104 136.875 18.8633 136.875C17.9163 136.875 17.1484 137.643 17.1484 138.59C17.1484 139.537 17.9163 140.305 18.8633 140.305ZM37.7306 138.59C37.7306 139.537 36.9627 140.305 36.0157 140.305C35.0686 140.305 34.3008 139.537 34.3008 138.59C34.3008 137.643 35.0686 136.875 36.0157 136.875C36.9627 136.875 37.7306 137.643 37.7306 138.59ZM53.1603 140.305C54.1073 140.305 54.8752 139.537 54.8752 138.59C54.8752 137.643 54.1073 136.875 53.1603 136.875C52.2132 136.875 51.4454 137.643 51.4454 138.59C51.4454 139.537 52.2132 140.305 53.1603 140.305ZM72.0235 138.59C72.0235 139.537 71.2557 140.305 70.3086 140.305C69.3616 140.305 68.5938 139.537 68.5938 138.59C68.5938 137.643 69.3616 136.875 70.3086 136.875C71.2557 136.875 72.0235 137.643 72.0235 138.59ZM87.461 140.305C88.408 140.305 89.1759 139.537 89.1759 138.59C89.1759 137.643 88.408 136.875 87.461 136.875C86.5139 136.875 85.7461 137.643 85.7461 138.59C85.7461 139.537 86.5139 140.305 87.461 140.305ZM106.324 138.59C106.324 139.537 105.556 140.305 104.609 140.305C103.662 140.305 102.895 139.537 102.895 138.59C102.895 137.643 103.662 136.875 104.609 136.875C105.556 136.875 106.324 137.643 106.324 138.59ZM121.762 140.305C122.709 140.305 123.477 139.537 123.477 138.59C123.477 137.643 122.709 136.875 121.762 136.875C120.815 136.875 120.047 137.643 120.047 138.59C120.047 139.537 120.815 140.305 121.762 140.305ZM3.42978 155.738C3.42978 156.685 2.66194 157.453 1.71489 157.453C0.767843 157.453 0 156.685 0 155.738C0 154.791 0.767843 154.023 1.71489 154.023C2.66194 154.023 3.42978 154.791 3.42978 155.738ZM18.8633 157.449C19.8104 157.449 20.5782 156.681 20.5782 155.734C20.5782 154.787 19.8104 154.02 18.8633 154.02C17.9163 154.02 17.1484 154.787 17.1484 155.734C17.1484 156.681 17.9163 157.449 18.8633 157.449ZM37.7306 155.734C37.7306 156.681 36.9627 157.449 36.0157 157.449C35.0686 157.449 34.3008 156.681 34.3008 155.734C34.3008 154.787 35.0686 154.02 36.0157 154.02C36.9627 154.02 37.7306 154.787 37.7306 155.734ZM53.1602 157.449C54.1073 157.449 54.8751 156.681 54.8751 155.734C54.8751 154.787 54.1073 154.02 53.1602 154.02C52.2132 154.02 51.4453 154.787 51.4453 155.734C51.4453 156.681 52.2132 157.449 53.1602 157.449ZM72.0235 155.738C72.0235 156.685 71.2557 157.453 70.3086 157.453C69.3616 157.453 68.5938 156.685 68.5938 155.738C68.5938 154.791 69.3616 154.023 70.3086 154.023C71.2557 154.023 72.0235 154.791 72.0235 155.738ZM87.461 157.449C88.408 157.449 89.1759 156.681 89.1759 155.734C89.1759 154.787 88.408 154.02 87.461 154.02C86.5139 154.02 85.7461 154.787 85.7461 155.734C85.7461 156.681 86.5139 157.449 87.461 157.449ZM106.324 155.734C106.324 156.681 105.556 157.449 104.609 157.449C103.662 157.449 102.895 156.681 102.895 155.734C102.895 154.787 103.662 154.02 104.609 154.02C105.556 154.02 106.324 154.787 106.324 155.734ZM121.762 157.449C122.709 157.449 123.477 156.681 123.477 155.734C123.477 154.787 122.709 154.02 121.762 154.02C120.815 154.02 120.047 154.787 120.047 155.734C120.047 156.681 120.815 157.449 121.762 157.449ZM3.42978 172.891C3.42978 173.838 2.66194 174.606 1.71489 174.606C0.767843 174.606 0 173.838 0 172.891C0 171.944 0.767843 171.176 1.71489 171.176C2.66194 171.176 3.42978 171.944 3.42978 172.891ZM18.8633 174.606C19.8104 174.606 20.5782 173.838 20.5782 172.891C20.5782 171.944 19.8104 171.176 18.8633 171.176C17.9163 171.176 17.1484 171.944 17.1484 172.891C17.1484 173.838 17.9163 174.606 18.8633 174.606ZM37.7306 172.891C37.7306 173.838 36.9627 174.606 36.0157 174.606C35.0686 174.606 34.3008 173.838 34.3008 172.891C34.3008 171.944 35.0686 171.176 36.0157 171.176C36.9627 171.176 37.7306 171.944 37.7306 172.891ZM53.1602 174.606C54.1073 174.606 54.8751 173.838 54.8751 172.891C54.8751 171.944 54.1073 171.176 53.1602 171.176C52.2132 171.176 51.4453 171.944 51.4453 172.891C51.4453 173.838 52.2132 174.606 53.1602 174.606ZM72.0235 172.891C72.0235 173.838 71.2557 174.606 70.3086 174.606C69.3616 174.606 68.5938 173.838 68.5938 172.891C68.5938 171.944 69.3616 171.176 70.3086 171.176C71.2557 171.176 72.0235 171.944 72.0235 172.891ZM87.461 174.606C88.408 174.606 89.1759 173.838 89.1759 172.891C89.1759 171.944 88.408 171.176 87.461 171.176C86.5139 171.176 85.7461 171.944 85.7461 172.891C85.7461 173.838 86.5139 174.606 87.461 174.606ZM106.324 172.891C106.324 173.838 105.556 174.606 104.609 174.606C103.662 174.606 102.895 173.838 102.895 172.891C102.895 171.944 103.662 171.176 104.609 171.176C105.556 171.176 106.324 171.944 106.324 172.891ZM121.762 174.606C122.709 174.606 123.477 173.838 123.477 172.891C123.477 171.944 122.709 171.176 121.762 171.176C120.815 171.176 120.047 171.944 120.047 172.891C120.047 173.838 120.815 174.606 121.762 174.606ZM3.42978 190.039C3.42978 190.986 2.66194 191.754 1.71489 191.754C0.767843 191.754 0 190.986 0 190.039C0 189.092 0.767843 188.324 1.71489 188.324C2.66194 188.324 3.42978 189.092 3.42978 190.039ZM18.8633 191.754C19.8104 191.754 20.5782 190.986 20.5782 190.039C20.5782 189.092 19.8104 188.324 18.8633 188.324C17.9163 188.324 17.1484 189.092 17.1484 190.039C17.1484 190.986 17.9163 191.754 18.8633 191.754ZM37.7306 190.039C37.7306 190.986 36.9627 191.754 36.0157 191.754C35.0686 191.754 34.3008 190.986 34.3008 190.039C34.3008 189.092 35.0686 188.324 36.0157 188.324C36.9627 188.324 37.7306 189.092 37.7306 190.039ZM53.1602 191.754C54.1073 191.754 54.8751 190.986 54.8751 190.039C54.8751 189.092 54.1073 188.324 53.1602 188.324C52.2132 188.324 51.4453 189.092 51.4453 190.039C51.4453 190.986 52.2132 191.754 53.1602 191.754ZM72.0235 190.039C72.0235 190.986 71.2557 191.754 70.3086 191.754C69.3616 191.754 68.5938 190.986 68.5938 190.039C68.5938 189.092 69.3616 188.324 70.3086 188.324C71.2557 188.324 72.0235 189.092 72.0235 190.039ZM87.461 191.754C88.408 191.754 89.1759 190.986 89.1759 190.039C89.1759 189.092 88.408 188.324 87.461 188.324C86.5139 188.324 85.7461 189.092 85.7461 190.039C85.7461 190.986 86.5139 191.754 87.461 191.754ZM106.324 190.039C106.324 190.986 105.556 191.754 104.609 191.754C103.662 191.754 102.895 190.986 102.895 190.039C102.895 189.092 103.662 188.324 104.609 188.324C105.556 188.324 106.324 189.092 106.324 190.039ZM121.762 191.754C122.709 191.754 123.477 190.986 123.477 190.039C123.477 189.092 122.709 188.324 121.762 188.324C120.815 188.324 120.047 189.092 120.047 190.039C120.047 190.986 120.815 191.754 121.762 191.754ZM3.42978 207.184C3.42978 208.131 2.66194 208.899 1.71489 208.899C0.767843 208.899 0 208.131 0 207.184C0 206.237 0.767843 205.469 1.71489 205.469C2.66194 205.469 3.42978 206.237 3.42978 207.184ZM18.8633 208.899C19.8104 208.899 20.5782 208.131 20.5782 207.184C20.5782 206.237 19.8104 205.469 18.8633 205.469C17.9163 205.469 17.1484 206.237 17.1484 207.184C17.1484 208.131 17.9163 208.899 18.8633 208.899ZM37.7306 207.184C37.7306 208.131 36.9627 208.899 36.0157 208.899C35.0686 208.899 34.3008 208.131 34.3008 207.184C34.3008 206.237 35.0686 205.469 36.0157 205.469C36.9627 205.469 37.7306 206.237 37.7306 207.184ZM53.1602 208.899C54.1073 208.899 54.8751 208.131 54.8751 207.184C54.8751 206.237 54.1073 205.469 53.1602 205.469C52.2132 205.469 51.4453 206.237 51.4453 207.184C51.4453 208.131 52.2132 208.899 53.1602 208.899ZM72.0235 207.184C72.0235 208.131 71.2557 208.899 70.3086 208.899C69.3616 208.899 68.5938 208.131 68.5938 207.184C68.5938 206.237 69.3616 205.469 70.3086 205.469C71.2557 205.469 72.0235 206.237 72.0235 207.184ZM87.461 208.899C88.408 208.899 89.1759 208.131 89.1759 207.184C89.1759 206.237 88.408 205.469 87.461 205.469C86.5139 205.469 85.7461 206.237 85.7461 207.184C85.7461 208.131 86.5139 208.899 87.461 208.899ZM106.324 207.184C106.324 208.131 105.556 208.899 104.609 208.899C103.662 208.899 102.895 208.131 102.895 207.184C102.895 206.237 103.662 205.469 104.609 205.469C105.556 205.469 106.324 206.237 106.324 207.184ZM121.762 208.899C122.709 208.899 123.477 208.131 123.477 207.184C123.477 206.237 122.709 205.469 121.762 205.469C120.815 205.469 120.047 206.237 120.047 207.184C120.047 208.131 120.815 208.899 121.762 208.899ZM3.42978 224.336C3.42978 225.283 2.66194 226.051 1.71489 226.051C0.767843 226.051 0 225.283 0 224.336C0 223.389 0.767843 222.621 1.71489 222.621C2.66194 222.621 3.42978 223.389 3.42978 224.336ZM18.8633 226.051C19.8104 226.051 20.5782 225.283 20.5782 224.336C20.5782 223.389 19.8104 222.621 18.8633 222.621C17.9163 222.621 17.1484 223.389 17.1484 224.336C17.1484 225.283 17.9163 226.051 18.8633 226.051ZM37.7306 224.336C37.7306 225.283 36.9627 226.051 36.0157 226.051C35.0686 226.051 34.3008 225.283 34.3008 224.336C34.3008 223.389 35.0686 222.621 36.0157 222.621C36.9627 222.621 37.7306 223.389 37.7306 224.336ZM53.1602 226.051C54.1073 226.051 54.8751 225.283 54.8751 224.336C54.8751 223.389 54.1073 222.621 53.1602 222.621C52.2132 222.621 51.4453 223.389 51.4453 224.336C51.4453 225.283 52.2132 226.051 53.1602 226.051ZM72.0235 224.336C72.0235 225.283 71.2557 226.051 70.3086 226.051C69.3616 226.051 68.5938 225.283 68.5938 224.336C68.5938 223.389 69.3616 222.621 70.3086 222.621C71.2557 222.621 72.0235 223.389 72.0235 224.336ZM87.461 226.051C88.408 226.051 89.1759 225.283 89.1759 224.336C89.1759 223.389 88.408 222.621 87.461 222.621C86.5139 222.621 85.7461 223.389 85.7461 224.336C85.7461 225.283 86.5139 226.051 87.461 226.051ZM106.324 224.336C106.324 225.283 105.556 226.051 104.609 226.051C103.662 226.051 102.895 225.283 102.895 224.336C102.895 223.389 103.662 222.621 104.609 222.621C105.556 222.621 106.324 223.389 106.324 224.336ZM121.762 226.051C122.709 226.051 123.477 225.283 123.477 224.336C123.477 223.389 122.709 222.621 121.762 222.621C120.815 222.621 120.047 223.389 120.047 224.336C120.047 225.283 120.815 226.051 121.762 226.051ZM3.42978 241.484C3.42978 242.431 2.66194 243.199 1.71489 243.199C0.767843 243.199 0 242.431 0 241.484C0 240.537 0.767843 239.77 1.71489 239.77C2.66194 239.77 3.42978 240.537 3.42978 241.484ZM18.8633 243.199C19.8104 243.199 20.5782 242.431 20.5782 241.484C20.5782 240.537 19.8104 239.77 18.8633 239.77C17.9163 239.77 17.1484 240.537 17.1484 241.484C17.1484 242.431 17.9163 243.199 18.8633 243.199ZM37.7306 241.484C37.7306 242.431 36.9627 243.199 36.0157 243.199C35.0686 243.199 34.3008 242.431 34.3008 241.484C34.3008 240.537 35.0686 239.77 36.0157 239.77C36.9627 239.77 37.7306 240.537 37.7306 241.484ZM53.1602 243.199C54.1073 243.199 54.8751 242.431 54.8751 241.484C54.8751 240.537 54.1073 239.77 53.1602 239.77C52.2132 239.77 51.4453 240.537 51.4453 241.484C51.4453 242.431 52.2132 243.199 53.1602 243.199ZM72.0235 241.484C72.0235 242.431 71.2557 243.199 70.3086 243.199C69.3616 243.199 68.5938 242.431 68.5938 241.484C68.5938 240.537 69.3616 239.77 70.3086 239.77C71.2557 239.77 72.0235 240.537 72.0235 241.484ZM87.461 243.199C88.408 243.199 89.1759 242.431 89.1759 241.484C89.1759 240.537 88.408 239.77 87.461 239.77C86.5139 239.77 85.7461 240.537 85.7461 241.484C85.7461 242.431 86.5139 243.199 87.461 243.199ZM106.324 241.484C106.324 242.431 105.556 243.199 104.609 243.199C103.662 243.199 102.895 242.431 102.895 241.484C102.895 240.537 103.662 239.77 104.609 239.77C105.556 239.77 106.324 240.537 106.324 241.484ZM121.762 243.199C122.709 243.199 123.477 242.431 123.477 241.484C123.477 240.537 122.709 239.77 121.762 239.77C120.815 239.77 120.047 240.537 120.047 241.484C120.047 242.431 120.815 243.199 121.762 243.199ZM3.42978 258.629C3.42978 259.576 2.66194 260.344 1.71489 260.344C0.767843 260.344 0 259.576 0 258.629C0 257.682 0.767843 256.914 1.71489 256.914C2.66194 256.914 3.42978 257.682 3.42978 258.629ZM18.8633 260.352C19.8104 260.352 20.5782 259.584 20.5782 258.637C20.5782 257.69 19.8104 256.922 18.8633 256.922C17.9163 256.922 17.1484 257.69 17.1484 258.637C17.1484 259.584 17.9163 260.352 18.8633 260.352ZM37.7306 258.637C37.7306 259.584 36.9627 260.352 36.0157 260.352C35.0686 260.352 34.3008 259.584 34.3008 258.637C34.3008 257.69 35.0686 256.922 36.0157 256.922C36.9627 256.922 37.7306 257.69 37.7306 258.637ZM53.1602 260.352C54.1073 260.352 54.8751 259.584 54.8751 258.637C54.8751 257.69 54.1073 256.922 53.1602 256.922C52.2132 256.922 51.4453 257.69 51.4453 258.637C51.4453 259.584 52.2132 260.352 53.1602 260.352ZM72.0235 258.629C72.0235 259.576 71.2557 260.344 70.3086 260.344C69.3616 260.344 68.5938 259.576 68.5938 258.629C68.5938 257.682 69.3616 256.914 70.3086 256.914C71.2557 256.914 72.0235 257.682 72.0235 258.629ZM87.461 260.352C88.408 260.352 89.1759 259.584 89.1759 258.637C89.1759 257.69 88.408 256.922 87.461 256.922C86.5139 256.922 85.7461 257.69 85.7461 258.637C85.7461 259.584 86.5139 260.352 87.461 260.352ZM106.324 258.637C106.324 259.584 105.556 260.352 104.609 260.352C103.662 260.352 102.895 259.584 102.895 258.637C102.895 257.69 103.662 256.922 104.609 256.922C105.556 256.922 106.324 257.69 106.324 258.637ZM121.762 260.352C122.709 260.352 123.477 259.584 123.477 258.637C123.477 257.69 122.709 256.922 121.762 256.922C120.815 256.922 120.047 257.69 120.047 258.637C120.047 259.584 120.815 260.352 121.762 260.352Z" fill="#F94973"/>
</g>
</svg>
