<svg width="28" height="28" viewBox="0 0 28 28" fill="none" xmlns="http://www.w3.org/2000/svg">
<path d="M3.25437 26.8026C3.13423 26.8026 3.01409 26.7673 2.91515 26.6896C2.73848 26.5554 2.65367 26.3366 2.70314 26.1247L3.77733 21.5844C1.98231 19.3884 1 16.6487 1 13.8384C1 6.98917 6.69599 1.41797 13.6923 1.41797C20.6886 1.41797 26.3846 6.98917 26.3846 13.8314C26.3846 20.6736 20.6886 26.2448 13.6923 26.2448C11.4945 26.2448 9.33198 25.6799 7.40976 24.5995L3.52998 26.7249C3.44518 26.7743 3.34624 26.7955 3.25437 26.7955V26.8026Z" stroke="#F94973" stroke-width="1.5" stroke-miterlimit="10"/>
<path fill-rule="evenodd" clip-rule="evenodd" d="M18.7806 16.096C18.4914 16.0683 17.4803 15.3828 16.816 15.6512C16.3071 15.863 15.9821 16.6609 15.6499 17.0634C15.4803 17.2752 15.2754 17.3035 15.0139 17.1975C13.0987 16.4349 11.6288 15.1569 10.5687 13.3916C10.3921 13.1162 10.4203 12.9044 10.6394 12.6502C10.9574 12.276 11.3602 11.8452 11.4451 11.3439C11.5299 10.8355 11.2966 10.2424 11.0846 9.79752C10.8161 9.21851 10.5193 8.39943 9.93978 8.07462C9.40976 7.77805 8.71013 7.94046 8.23664 8.32882C7.41687 8.99256 7.02818 10.0376 7.03525 11.0685C7.03525 11.3651 7.07765 11.6546 7.14126 11.937C7.3038 12.6149 7.62181 13.2504 7.97516 13.8576C8.24371 14.3166 8.53345 14.7544 8.8444 15.1781C9.86911 16.5691 11.1482 17.7766 12.6252 18.6804C13.3602 19.1323 14.1588 19.5277 14.9785 19.8031C15.9043 20.1067 16.7241 20.4245 17.7205 20.2338C18.7664 20.0361 19.7912 19.3935 20.2081 18.3838C20.3283 18.0872 20.3919 17.7554 20.3212 17.4376C20.1798 16.788 18.8448 16.0683 18.7735 16.089L18.7806 16.096Z" fill="#F94973"/>
</svg>
