<svg width="27" height="27" viewBox="0 0 27 27" fill="none" xmlns="http://www.w3.org/2000/svg">
<path d="M20.0926 1H6.90737C3.64482 1 1 3.76973 1 7.18637V19.8136C1 23.2303 3.64482 26 6.90737 26H20.0926C23.3552 26 26 23.2303 26 19.8136V7.18637C26 3.76973 23.3552 1 20.0926 1Z" stroke="#F94973" stroke-width="1.5" stroke-miterlimit="10"/>
<path d="M13.5043 7.92188C10.2907 7.92188 7.69141 10.6509 7.69141 14.0093C7.69141 17.3676 10.2974 20.0966 13.5043 20.0966C16.7111 20.0966 19.3171 17.3676 19.3171 14.0093C19.3171 10.6509 16.7111 7.92188 13.5043 7.92188Z" stroke="#F94973" stroke-width="1.5" stroke-miterlimit="10"/>
<path d="M21.824 5.94786C21.824 6.67608 21.2636 7.2629 20.5682 7.2629C19.8729 7.2629 19.3125 6.67608 19.3125 5.94786C19.3125 5.21963 19.8729 4.63281 20.5682 4.63281C21.2636 4.63281 21.824 5.21963 21.824 5.94786" stroke="#F94973" stroke-width="1.5" stroke-miterlimit="10"/>
</svg>
