<svg width="16" height="17" viewBox="0 0 16 17" fill="none" xmlns="http://www.w3.org/2000/svg">
<path d="M7.98006 16.3817C7.87619 16.3817 7.77232 16.3458 7.69961 16.2787C7.42435 16.0323 1 10.2541 1 7.01561C1 3.77712 4.13168 1 7.98006 1C11.8284 1 14.9601 3.70098 14.9601 7.02009C14.9601 10.3392 8.53576 16.0368 8.26051 16.2831C8.1878 16.3503 8.08912 16.3862 7.98006 16.3862V16.3817Z" stroke="#F94973" stroke-miterlimit="10"/>
<path d="M7.97552 9.34039C6.26686 9.34039 4.875 8.13996 4.875 6.66629C4.875 5.19262 6.26686 3.99219 7.97552 3.99219C9.68418 3.99219 11.076 5.19262 11.076 6.66629C11.076 8.13996 9.68418 9.34039 7.97552 9.34039V9.34039Z" stroke="#F94973" stroke-miterlimit="10"/>
<path d="M7.97934 16.9999C8.95169 16.9999 9.73994 16.8976 9.73994 16.7714C9.73994 16.6452 8.95169 16.543 7.97934 16.543C7.00699 16.543 6.21875 16.6452 6.21875 16.7714C6.21875 16.8976 7.00699 16.9999 7.97934 16.9999Z" fill="#F94973"/>
</svg>
